{"glyphs":{"0":{"ha":833,"x_min":0,"x_max":0,"o":"m 416 924 b 508 888 452 924 482 911 l 265 212 b 216 506 233 287 216 390 b 416 924 216 740 283 924 z m 416 -17 b 749 507 646 -17 749 229 b 416 1028 749 762 669 1028 b 83 507 164 1028 83 762 b 416 -17 83 229 186 -17 z m 571 794 b 616 506 601 719 616 618 b 416 88 616 272 549 88 b 330 119 384 88 355 99 z "},"1":{"ha":833,"x_min":0,"x_max":0,"o":"m 153 873 l 153 750 b 408 875 231 780 338 836 l 408 0 l 535 0 l 535 1012 l 408 1012 b 153 873 334 960 241 909 z "},"2":{"ha":833,"x_min":0,"x_max":0,"o":"m 126 939 l 174 827 b 406 909 229 872 307 909 b 580 734 515 909 580 846 b 445 497 580 638 500 561 l 133 130 l 133 0 l 721 0 l 721 99 l 273 99 l 541 395 b 731 731 619 480 731 574 b 404 1028 731 903 604 1028 b 126 939 290 1028 194 993 z "},"3":{"ha":833,"x_min":0,"x_max":0,"o":"m 391 106 b 157 185 293 106 199 149 l 109 77 b 385 -8 173 29 271 -8 b 760 280 591 -8 760 75 b 501 545 760 442 628 522 b 722 775 615 572 722 636 b 405 1028 722 932 588 1028 b 111 937 278 1028 181 997 l 157 828 b 389 915 212 876 289 915 b 572 765 507 915 572 861 b 328 600 572 631 462 602 l 253 599 l 253 478 l 328 478 b 607 293 471 478 607 434 b 391 106 607 169 521 106 z "},"4":{"ha":833,"x_min":0,"x_max":0,"o":"m 608 0 l 608 270 l 772 270 l 772 365 l 608 365 l 608 1012 l 452 1012 l 41 367 l 41 270 l 481 270 l 481 0 z m 481 869 l 481 365 l 170 365 z "},"5":{"ha":833,"x_min":0,"x_max":0,"o":"m 164 186 l 114 82 b 429 -16 197 20 287 -16 b 752 335 644 -16 752 162 b 457 662 752 501 654 662 b 307 597 374 662 307 597 l 307 913 l 669 913 l 669 1012 l 179 1012 l 179 474 l 321 474 b 444 549 321 474 361 549 b 617 335 560 549 617 444 b 417 88 617 215 548 88 b 164 186 333 88 252 116 z "},"6":{"ha":833,"x_min":0,"x_max":0,"o":"m 434 -18 b 755 304 600 -18 755 101 b 468 618 755 482 646 618 b 321 578 414 618 356 600 l 688 1012 l 524 1012 l 216 636 b 104 320 155 557 104 450 b 434 -18 104 113 226 -18 z m 239 296 b 441 519 239 417 307 519 b 625 302 558 519 625 419 b 434 87 625 182 549 88 b 239 296 315 87 239 178 z "},"7":{"ha":833,"x_min":0,"x_max":0,"o":"m 97 897 l 536 897 l 252 0 l 410 0 l 697 913 l 697 1012 l 97 1012 z "},"8":{"ha":833,"x_min":0,"x_max":0,"o":"m 269 256 b 425 460 269 375 335 433 b 581 256 515 433 581 376 b 425 88 581 151 526 88 b 269 256 323 88 269 152 z m 726 275 b 517 528 726 414 625 495 b 707 774 623 565 707 640 b 425 1028 707 936 583 1028 b 143 774 266 1028 143 936 b 333 528 143 639 227 565 b 123 275 224 495 123 415 b 425 -16 123 89 239 -16 b 726 275 610 -16 726 89 z m 576 780 b 425 593 576 666 512 616 b 274 780 337 616 274 666 b 425 924 274 868 338 924 b 576 780 511 924 576 869 z "},"9":{"ha":833,"x_min":0,"x_max":0,"o":"m 451 1029 b 131 713 285 1029 131 917 b 417 414 131 536 239 414 b 564 454 471 414 529 432 l 201 0 l 366 0 l 671 395 b 782 698 732 474 782 568 b 451 1029 782 905 659 1029 z m 646 722 b 444 509 646 601 578 509 b 260 716 327 509 260 599 b 452 924 260 836 337 924 b 646 722 572 924 646 840 z "},"\u0000":{"ha":833,"x_min":0,"x_max":0,"o":""},"\u0001":{"ha":833,"x_min":0,"x_max":0,"o":""},"\u0002":{"ha":833,"x_min":0,"x_max":0,"o":""},"\u0003":{"ha":833,"x_min":0,"x_max":0,"o":""},"\u0004":{"ha":833,"x_min":0,"x_max":0,"o":""},"\u0005":{"ha":833,"x_min":0,"x_max":0,"o":""},"\u0006":{"ha":833,"x_min":0,"x_max":0,"o":""},"\u0007":{"ha":833,"x_min":0,"x_max":0,"o":""},"\b":{"ha":833,"x_min":0,"x_max":0,"o":""},"\t":{"ha":833,"x_min":0,"x_max":0,"o":""},"\n":{"ha":833,"x_min":0,"x_max":0,"o":""},"\u000b":{"ha":833,"x_min":0,"x_max":0,"o":""},"\f":{"ha":833,"x_min":0,"x_max":0,"o":""},"\r":{"ha":833,"x_min":0,"x_max":0,"o":""},"\u000e":{"ha":833,"x_min":0,"x_max":0,"o":""},"\u000f":{"ha":833,"x_min":0,"x_max":0,"o":""},"\u0010":{"ha":833,"x_min":0,"x_max":0,"o":""},"\u0011":{"ha":833,"x_min":0,"x_max":0,"o":""},"\u0012":{"ha":833,"x_min":0,"x_max":0,"o":""},"\u0013":{"ha":833,"x_min":0,"x_max":0,"o":""},"\u0014":{"ha":833,"x_min":0,"x_max":0,"o":""},"\u0015":{"ha":833,"x_min":0,"x_max":0,"o":""},"\u0016":{"ha":833,"x_min":0,"x_max":0,"o":""},"\u0017":{"ha":833,"x_min":0,"x_max":0,"o":""},"\u0018":{"ha":833,"x_min":0,"x_max":0,"o":""},"\u0019":{"ha":833,"x_min":0,"x_max":0,"o":""},"\u001a":{"ha":833,"x_min":0,"x_max":0,"o":""},"\u001b":{"ha":833,"x_min":0,"x_max":0,"o":""},"\u001c":{"ha":833,"x_min":0,"x_max":0,"o":""},"\u001d":{"ha":833,"x_min":0,"x_max":0,"o":""},"\u001e":{"ha":833,"x_min":0,"x_max":0,"o":""},"\u001f":{"ha":833,"x_min":0,"x_max":0,"o":""}," ":{"ha":833,"x_min":0,"x_max":0,"o":""},"!":{"ha":833,"x_min":0,"x_max":0,"o":"m 391 332 l 467 332 l 527 1095 l 330 1095 z m 527 0 l 527 187 l 330 187 l 330 0 z "},"\"":{"ha":833,"x_min":0,"x_max":0,"o":"m 351 1063 l 193 1063 l 220 703 l 317 703 z m 600 1063 l 444 1063 l 470 703 l 566 703 z "},"#":{"ha":833,"x_min":0,"x_max":0,"o":"m 762 676 l 774 766 l 655 766 l 713 1063 l 604 1063 l 547 766 l 377 766 l 435 1063 l 324 1063 l 266 766 l 106 766 l 96 675 l 249 675 l 195 389 l 39 389 l 31 296 l 177 296 l 113 -17 l 224 -17 l 285 296 l 452 296 l 393 -17 l 503 -17 l 564 296 l 696 296 l 707 389 l 580 389 l 637 676 z m 359 676 l 529 676 l 472 389 l 302 389 z "},"$":{"ha":833,"x_min":0,"x_max":0,"o":"m 175 195 l 123 75 b 352 -11 186 33 262 2 l 339 -126 l 425 -126 l 437 -17 l 444 -17 b 777 283 642 -17 777 84 b 528 596 777 467 654 540 l 507 604 l 547 952 b 684 893 600 941 646 921 l 733 1002 b 561 1076 687 1038 630 1063 l 576 1210 l 490 1210 l 476 1084 b 455 1084 469 1084 462 1084 b 130 803 271 1084 130 987 b 378 514 130 629 255 566 b 410 500 388 509 399 505 l 366 113 b 175 195 290 125 224 154 z m 625 290 b 451 106 625 172 564 108 l 492 467 b 625 290 564 432 625 383 z m 278 800 b 448 962 280 904 343 962 b 462 961 452 962 457 961 l 425 637 b 278 800 350 669 278 712 z "},"%":{"ha":833,"x_min":0,"x_max":0,"o":"m 193 1065 b 0 783 55 1065 0 924 b 187 505 0 646 51 505 b 378 787 309 505 378 635 b 193 1065 378 926 330 1065 z m 659 -20 b 850 262 780 -20 850 110 b 665 541 850 401 801 541 b 472 258 542 541 472 412 b 659 -20 472 121 524 -20 z m 779 1057 l 680 1057 l 71 -4 l 168 -4 z m 662 63 b 564 258 579 63 564 173 b 662 458 564 342 580 458 b 760 262 745 458 760 347 b 662 63 760 178 743 63 z m 191 983 b 288 787 272 983 288 871 b 190 588 288 704 270 588 b 92 784 107 588 92 699 b 191 983 92 868 109 983 z "},"&":{"ha":833,"x_min":0,"x_max":0,"o":"m 41 280 b 351 -17 41 87 161 -17 b 636 72 452 -17 552 16 l 704 -16 l 809 46 l 730 149 b 829 298 772 193 806 243 l 725 364 b 654 248 715 334 690 291 l 410 568 b 634 861 512 625 634 711 b 359 1081 634 1008 497 1081 b 94 866 225 1081 94 1010 b 220 617 94 747 166 686 l 235 597 b 41 280 136 532 41 435 z m 192 288 b 304 506 192 391 243 459 l 565 165 b 367 97 510 125 443 97 b 192 288 250 97 192 168 z m 231 867 b 354 979 231 943 291 979 b 497 854 424 979 497 935 b 345 652 497 747 419 693 l 331 671 b 231 867 293 722 231 780 z "},"'":{"ha":833,"x_min":0,"x_max":0,"o":"m 378 657 l 475 657 l 512 1072 l 336 1072 z "},"(":{"ha":833,"x_min":0,"x_max":0,"o":"m 200 524 b 407 -103 200 263 285 60 l 551 -103 b 357 530 440 75 357 271 b 550 1156 357 744 421 953 l 405 1156 b 200 524 286 991 200 785 z "},")":{"ha":833,"x_min":0,"x_max":0,"o":"m 553 524 b 348 1156 553 785 467 991 l 203 1156 b 395 530 332 953 395 744 b 201 -103 395 271 313 75 l 346 -103 b 553 524 468 60 553 263 z "},"*":{"ha":833,"x_min":0,"x_max":0,"o":"m 723 254 l 501 510 l 811 610 l 746 732 l 469 587 l 490 902 l 353 902 l 377 587 l 97 732 l 33 610 l 342 510 l 120 254 l 247 183 l 420 456 l 597 183 z "},"+":{"ha":833,"x_min":0,"x_max":0,"o":"m 442 872 l 442 561 l 103 561 l 103 458 l 439 458 l 439 147 l 551 147 l 551 458 l 889 458 l 889 561 l 552 561 l 552 872 z "},",":{"ha":833,"x_min":0,"x_max":0,"o":"m 298 -212 l 395 -212 l 534 194 l 333 194 z "},"-":{"ha":833,"x_min":0,"x_max":0,"o":"m 673 561 l 219 561 l 219 456 l 673 456 z "},".":{"ha":833,"x_min":0,"x_max":0,"o":"m 518 0 l 518 204 l 314 204 l 314 0 z "},"/":{"ha":833,"x_min":0,"x_max":0,"o":"m 620 1075 l 143 -152 l 273 -152 l 753 1075 z "},":":{"ha":833,"x_min":0,"x_max":0,"o":"m 534 563 l 534 766 l 330 766 l 330 563 z m 534 98 l 534 302 l 330 302 l 330 98 z "},";":{"ha":833,"x_min":0,"x_max":0,"o":"m 278 -212 l 400 -212 l 514 194 l 330 194 z m 528 568 l 528 772 l 325 772 l 325 568 z "},"<":{"ha":833,"x_min":0,"x_max":0,"o":"m 796 249 l 268 508 l 799 774 l 799 896 l 103 547 l 103 467 l 796 129 z "},"=":{"ha":833,"x_min":0,"x_max":0,"o":"m 810 609 l 810 711 l 23 711 l 23 609 z m 810 310 l 810 410 l 24 410 l 24 310 z "},">":{"ha":833,"x_min":0,"x_max":0,"o":"m 107 783 l 633 511 l 103 258 l 103 144 l 799 474 l 799 538 l 107 896 z "},"?":{"ha":833,"x_min":0,"x_max":0,"o":"m 355 377 b 574 664 355 477 501 578 b 650 835 610 707 650 762 b 303 1089 650 1023 492 1089 b 114 1041 229 1089 167 1066 l 114 934 b 303 984 165 962 229 984 b 524 829 418 984 524 944 b 450 673 524 758 488 712 b 236 387 374 597 236 535 l 237 386 b 244 271 237 347 239 309 l 368 271 b 355 377 361 303 355 340 z m 222 -8 l 387 -8 l 387 146 l 222 146 z "},"@":{"ha":833,"x_min":0,"x_max":0,"o":"m 624 355 b 690 806 624 518 671 657 l 598 806 l 584 720 b 467 830 565 770 528 830 b 246 441 335 830 246 632 b 398 182 246 311 283 182 b 550 315 444 182 497 223 b 670 188 558 244 595 188 b 751 223 698 188 724 199 b 893 617 839 300 893 452 b 547 1072 893 861 790 1072 b 21 436 254 1072 21 808 b 442 -89 21 196 142 -89 b 810 66 600 -89 718 -22 l 750 117 b 450 1 672 52 574 1 b 135 435 244 1 135 191 b 255 830 135 598 184 736 b 542 984 317 911 411 984 b 800 627 709 984 800 825 b 677 262 800 532 768 262 b 624 355 643 262 624 317 z m 544 604 b 500 368 544 515 526 429 b 416 267 484 330 455 267 b 350 420 361 267 350 347 b 473 733 350 521 376 733 b 544 604 534 733 544 666 z "},"A":{"ha":833,"x_min":0,"x_max":0,"o":"m 494 1011 l 339 1011 l 27 0 l 165 0 l 267 321 l 565 321 l 667 0 l 806 0 z m 294 431 l 418 831 l 539 431 z "},"B":{"ha":833,"x_min":0,"x_max":0,"o":"m 513 548 b 687 763 615 576 687 649 b 260 1011 687 974 471 1011 l 92 1011 l 92 0 l 327 0 b 739 311 564 0 739 73 b 513 548 739 439 635 523 z m 606 298 b 306 99 606 140 470 99 l 218 99 l 218 480 l 340 480 b 606 298 496 480 606 447 z m 316 593 l 218 593 l 218 912 b 554 739 397 912 554 902 b 316 593 554 622 443 593 z "},"C":{"ha":833,"x_min":0,"x_max":0,"o":"m 786 942 b 501 1028 718 998 621 1028 b 87 509 251 1028 87 816 b 501 -17 87 215 232 -17 b 787 70 621 -17 718 14 l 740 165 b 514 88 688 125 610 88 b 220 507 315 88 220 275 b 515 924 220 728 304 924 b 739 853 610 924 684 893 z "},"D":{"ha":833,"x_min":0,"x_max":0,"o":"m 92 1011 l 92 0 l 219 0 b 734 506 558 0 734 181 b 232 1011 734 826 558 1011 z m 218 99 l 218 912 b 602 507 489 912 602 763 b 218 99 602 250 489 99 z "},"E":{"ha":833,"x_min":0,"x_max":0,"o":"m 274 464 l 718 464 l 718 572 l 274 572 l 274 912 l 741 912 l 751 1011 l 147 1011 l 147 0 l 764 0 l 774 99 l 274 99 z "},"F":{"ha":833,"x_min":0,"x_max":0,"o":"m 292 463 l 722 463 l 722 574 l 292 574 l 292 912 l 740 912 l 752 1011 l 165 1011 l 165 0 l 292 0 z "},"G":{"ha":833,"x_min":0,"x_max":0,"o":"m 716 832 l 764 941 b 472 1029 693 1002 594 1029 b 79 509 224 1029 79 808 b 472 -17 79 222 207 -17 b 796 90 608 -17 711 35 l 796 528 l 444 528 l 444 424 l 679 424 l 679 147 b 484 88 628 117 564 88 b 212 507 296 88 212 286 b 484 924 212 716 283 924 b 716 832 583 924 662 882 z "},"H":{"ha":833,"x_min":0,"x_max":0,"o":"m 222 0 l 222 476 l 612 476 l 612 0 l 739 0 l 739 1011 l 612 1011 l 612 580 l 222 580 l 222 1011 l 95 1011 l 95 0 z "},"I":{"ha":833,"x_min":0,"x_max":0,"o":"m 132 912 l 351 912 l 351 99 l 132 99 l 132 0 l 702 0 l 702 99 l 477 99 l 477 912 l 702 912 l 702 1011 l 132 1011 z "},"J":{"ha":833,"x_min":0,"x_max":0,"o":"m 93 91 l 93 -18 l 252 -18 b 516 300 456 -18 516 82 l 516 912 l 719 912 l 719 1011 l 155 1011 l 155 912 l 389 912 l 389 265 b 237 91 389 144 356 91 z "},"K":{"ha":833,"x_min":0,"x_max":0,"o":"m 629 1011 l 270 524 l 270 1011 l 143 1011 l 143 0 l 270 0 l 270 380 l 351 475 l 682 0 l 844 0 l 448 558 l 787 1011 z "},"L":{"ha":833,"x_min":0,"x_max":0,"o":"m 285 99 l 285 1011 l 158 1011 l 158 0 l 766 0 l 766 99 z "},"M":{"ha":833,"x_min":0,"x_max":0,"o":"m 227 834 l 347 438 l 489 438 l 609 834 l 609 0 l 732 0 l 732 1011 l 563 1011 l 418 544 l 274 1011 l 101 1011 l 101 0 l 227 0 z "},"N":{"ha":833,"x_min":0,"x_max":0,"o":"m 731 0 l 731 1011 l 618 1011 l 618 196 l 248 1011 l 102 1011 l 102 0 l 217 0 l 217 818 l 582 0 z "},"O":{"ha":833,"x_min":0,"x_max":0,"o":"m 416 -17 b 749 507 646 -17 749 229 b 416 1028 749 762 669 1028 b 83 507 164 1028 83 762 b 416 -17 83 229 186 -17 z m 416 924 b 616 506 550 924 616 740 b 416 88 616 272 549 88 b 216 506 283 88 216 272 b 416 924 216 740 283 924 z "},"P":{"ha":833,"x_min":0,"x_max":0,"o":"m 808 720 b 399 1011 808 940 619 1011 l 119 1011 l 119 0 l 246 0 l 246 412 b 808 720 560 412 808 431 z m 246 522 l 246 912 l 447 912 b 675 714 570 912 675 854 b 442 522 675 584 566 522 z "},"Q":{"ha":833,"x_min":0,"x_max":0,"o":"m 518 14 l 397 -13 b 621 -311 454 -127 533 -225 l 705 -224 b 518 14 631 -157 564 -79 z m 390 -17 b 723 507 620 -17 723 229 b 390 1028 723 762 642 1028 b 57 507 138 1028 57 762 b 390 -17 57 229 160 -17 z m 390 924 b 590 506 524 924 590 740 b 390 88 590 272 523 88 b 190 506 257 88 190 272 b 390 924 190 740 256 924 z "},"R":{"ha":833,"x_min":0,"x_max":0,"o":"m 756 741 b 323 1011 756 976 557 1011 l 126 1011 l 126 0 l 253 0 l 253 449 l 312 449 b 414 443 349 449 382 448 b 652 -1 524 326 580 155 l 799 0 b 532 479 724 165 657 362 b 756 741 660 508 756 592 z m 351 559 l 253 559 l 253 912 l 382 912 b 615 740 509 912 615 867 b 351 559 615 597 494 559 z "},"S":{"ha":833,"x_min":0,"x_max":0,"o":"m 144 177 l 96 64 b 399 -17 175 11 277 -17 b 715 281 590 -17 715 83 b 479 565 715 446 595 513 b 242 760 391 604 242 636 b 416 924 242 863 310 924 b 629 856 502 924 576 897 l 676 954 b 410 1029 612 1004 523 1029 b 102 762 235 1029 102 936 b 336 487 102 596 220 536 b 572 274 434 446 572 410 b 402 88 572 161 512 88 b 144 177 296 88 207 125 z "},"T":{"ha":833,"x_min":0,"x_max":0,"o":"m 813 1011 l 20 1011 l 20 912 l 351 912 l 351 0 l 478 0 l 478 912 l 813 912 z "},"U":{"ha":833,"x_min":0,"x_max":0,"o":"m 416 -17 b 745 368 649 -17 745 127 l 745 1011 l 618 1011 l 618 372 b 416 88 618 211 579 88 b 214 372 254 88 214 211 l 214 1011 l 87 1011 l 87 368 b 416 -17 87 127 184 -17 z "},"V":{"ha":833,"x_min":0,"x_max":0,"o":"m 656 1011 l 418 151 l 178 1011 l 39 1011 l 342 0 l 490 0 l 795 1011 z "},"W":{"ha":833,"x_min":0,"x_max":0,"o":"m 627 142 l 498 597 l 354 597 l 224 144 l 143 1011 l 9 1011 l 121 1 l 288 1 l 426 477 l 549 1 l 718 1 l 825 1011 l 692 1011 z "},"X":{"ha":833,"x_min":0,"x_max":0,"o":"m 62 1011 l 338 517 l 35 0 l 194 0 l 414 429 l 633 0 l 798 0 l 508 517 l 793 1011 l 638 1011 l 427 605 l 231 1011 z "},"Y":{"ha":833,"x_min":0,"x_max":0,"o":"m 485 0 l 485 402 l 800 1011 l 644 1011 l 414 534 l 186 1011 l 33 1011 l 341 402 l 341 0 z "},"Z":{"ha":833,"x_min":0,"x_max":0,"o":"m 233 99 l 681 925 l 681 1011 l 93 1011 l 93 912 l 508 912 l 69 97 l 69 0 l 675 0 l 675 99 z "},"[":{"ha":833,"x_min":0,"x_max":0,"o":"m 262 -89 b 266 -92 263 -91 264 -92 l 615 -92 b 618 -89 617 -92 618 -91 l 618 1 b 615 4 618 2 617 4 l 391 4 l 391 1077 l 614 1077 b 618 1080 616 1077 617 1078 l 618 1170 b 614 1173 617 1172 616 1173 l 266 1173 b 262 1170 264 1173 263 1172 z "},"\\":{"ha":833,"x_min":0,"x_max":0,"o":"m 746 -33 l 268 1194 l 143 1194 l 624 -33 z "},"]":{"ha":833,"x_min":0,"x_max":0,"o":"m 473 -89 b 469 -92 472 -91 471 -92 l 120 -92 b 117 -89 118 -92 117 -91 l 117 1 b 120 4 117 2 118 4 l 345 4 l 345 1077 l 121 1077 b 117 1080 119 1077 118 1078 l 117 1170 b 121 1173 118 1172 119 1173 l 469 1173 b 473 1170 471 1173 472 1172 z "},"^":{"ha":833,"x_min":0,"x_max":0,"o":"m 437 1054 l 75 405 l 193 405 l 473 928 l 763 405 l 879 405 l 513 1054 z "},"_":{"ha":833,"x_min":0,"x_max":0,"o":"m 3 -201 l 730 -201 l 730 -106 l 3 -106 z "},"`":{"ha":833,"x_min":0,"x_max":0,"o":"m 444 1156 l 283 1156 l 541 860 l 635 860 z "},"a":{"ha":833,"x_min":0,"x_max":0,"o":"m 363 -17 b 593 57 444 -17 535 22 l 610 0 l 718 0 l 718 536 b 444 766 718 701 599 766 b 155 715 335 766 237 750 l 184 620 b 431 677 248 652 337 677 b 594 513 534 677 594 626 l 594 395 l 495 395 b 120 190 297 395 120 374 b 363 -17 120 55 229 -17 z m 368 73 b 241 196 289 73 241 120 b 493 317 241 312 385 317 l 594 317 l 594 127 b 368 73 530 102 450 73 z "},"b":{"ha":833,"x_min":0,"x_max":0,"o":"m 210 642 l 210 1061 l 87 1061 l 87 0 l 209 0 l 210 102 b 443 -17 262 33 328 -17 b 753 385 659 -17 753 168 b 442 766 753 596 652 766 b 210 642 323 766 258 716 z m 210 376 b 428 671 210 540 259 671 b 629 376 589 671 629 528 b 428 79 629 231 584 79 b 210 376 264 79 210 217 z "},"c":{"ha":833,"x_min":0,"x_max":0,"o":"m 224 378 b 469 671 224 554 299 671 b 677 592 554 671 623 640 l 724 692 b 461 766 657 740 568 766 b 80 377 224 766 80 612 b 461 -17 80 136 219 -17 b 724 58 572 -17 659 9 l 677 142 b 471 78 624 104 555 78 b 224 378 299 78 224 198 z "},"d":{"ha":833,"x_min":0,"x_max":0,"o":"m 623 642 b 391 766 575 716 511 766 b 80 385 182 766 80 596 b 391 -17 80 168 174 -17 b 623 102 505 -17 571 33 l 625 0 l 747 0 l 747 1061 l 623 1061 z m 623 376 b 406 78 623 216 569 78 b 204 376 250 78 204 231 b 406 671 204 528 244 671 b 623 376 574 671 623 540 z "},"e":{"ha":833,"x_min":0,"x_max":0,"o":"m 590 443 l 226 443 b 430 671 240 563 296 671 b 590 443 549 671 583 557 z m 420 -17 b 693 85 548 -17 623 22 l 639 169 b 429 78 581 108 511 78 b 222 353 282 78 228 209 l 707 353 l 708 394 b 430 766 708 591 627 766 b 97 376 220 766 97 595 b 420 -17 97 158 201 -17 z "},"f":{"ha":833,"x_min":0,"x_max":0,"o":"m 639 966 l 773 966 l 773 1075 l 655 1075 b 338 744 368 1075 338 972 l 106 744 l 106 649 l 338 649 l 338 95 l 122 95 l 122 0 l 703 0 l 703 95 l 462 95 l 462 649 l 773 649 l 773 744 l 462 744 l 462 814 b 639 966 462 942 511 966 z "},"g":{"ha":833,"x_min":0,"x_max":0,"o":"m 406 671 b 609 377 566 671 609 532 b 401 110 609 245 559 110 b 204 373 258 110 204 244 b 406 671 204 535 247 671 z m 609 142 l 609 93 b 215 -218 609 -169 502 -218 l 215 -313 b 732 103 613 -313 732 -215 l 732 302 b 739 744 732 454 733 596 l 613 744 l 609 643 b 393 766 562 720 491 766 b 80 377 180 766 80 597 b 390 0 80 172 182 0 b 609 142 494 0 581 70 z "},"h":{"ha":833,"x_min":0,"x_max":0,"o":"m 461 766 b 232 645 336 766 283 712 l 232 1061 l 109 1061 l 109 0 l 232 0 l 232 497 b 431 671 232 547 311 671 b 570 433 553 671 570 559 l 570 0 l 693 0 l 693 449 b 461 766 693 635 631 766 z "},"i":{"ha":833,"x_min":0,"x_max":0,"o":"m 180 649 l 411 649 l 411 95 l 134 95 l 134 0 l 804 0 l 804 95 l 534 95 l 534 744 l 180 744 z m 391 940 b 473 878 391 906 439 878 b 555 940 507 878 555 906 l 555 1007 b 473 1069 555 1041 507 1069 b 391 1007 439 1069 391 1041 z "},"j":{"ha":833,"x_min":0,"x_max":0,"o":"m 399 940 b 481 878 399 906 447 878 b 564 940 516 878 564 906 l 564 1007 b 481 1069 564 1041 516 1069 b 399 1007 447 1069 399 1041 z m 278 -149 l 92 -149 l 92 -244 l 279 -244 b 545 86 533 -244 545 -135 l 545 744 l 92 744 l 92 649 l 421 649 l 421 48 b 278 -149 421 -119 404 -149 z "},"k":{"ha":833,"x_min":0,"x_max":0,"o":"m 259 439 l 259 1061 l 136 1061 l 136 0 l 259 0 l 259 306 l 335 370 l 636 0 l 791 0 l 423 435 l 789 744 l 627 744 z "},"l":{"ha":833,"x_min":0,"x_max":0,"o":"m 132 966 l 411 966 l 411 95 l 85 95 l 85 0 l 854 0 l 854 95 l 534 95 l 534 1061 l 132 1061 z "},"m":{"ha":833,"x_min":0,"x_max":0,"o":"m 606 671 b 694 408 691 671 694 504 l 694 0 l 813 0 l 813 477 b 645 766 813 620 786 766 b 446 624 529 766 485 689 b 294 766 427 695 393 766 b 144 632 219 766 166 689 l 136 744 l 33 744 l 33 0 l 152 0 l 152 489 b 267 671 152 567 191 671 b 361 433 354 671 361 523 l 361 0 l 477 0 l 477 461 b 606 671 477 543 497 671 z "},"n":{"ha":833,"x_min":0,"x_max":0,"o":"m 485 766 b 267 650 372 766 310 709 l 260 744 l 147 744 l 147 0 l 271 0 l 271 496 b 441 671 271 602 348 671 b 593 434 597 671 593 554 l 593 0 l 716 0 l 716 473 b 485 766 716 648 656 766 z "},"o":{"ha":833,"x_min":0,"x_max":0,"o":"m 415 766 b 80 374 214 766 80 608 b 415 -17 80 157 196 -17 b 753 378 617 -17 753 142 b 415 766 753 599 638 766 z m 205 373 b 415 671 205 518 260 671 b 629 375 575 671 629 522 b 415 78 629 228 574 78 b 205 373 260 78 205 228 z "},"p":{"ha":833,"x_min":0,"x_max":0,"o":"m 210 642 l 210 744 l 87 744 l 87 -299 l 209 -299 l 210 102 b 443 -17 262 33 328 -17 b 753 385 659 -17 753 168 b 442 766 753 596 652 766 b 210 642 323 766 258 716 z m 210 376 b 428 671 210 540 259 671 b 629 376 589 671 629 528 b 428 78 629 231 584 78 b 210 376 264 78 210 216 z "},"q":{"ha":833,"x_min":0,"x_max":0,"o":"m 623 642 b 391 766 575 716 511 766 b 80 385 182 766 80 596 b 391 -17 80 168 174 -17 b 623 102 505 -17 571 33 l 625 -299 l 747 -299 l 747 744 l 623 744 z m 623 376 b 406 78 623 216 569 78 b 204 376 250 78 204 231 b 406 671 204 528 244 671 b 623 376 574 671 623 540 z "},"r":{"ha":833,"x_min":0,"x_max":0,"o":"m 696 652 l 806 652 l 806 766 l 713 766 b 437 606 591 766 498 713 l 427 744 l 174 744 l 174 649 l 326 649 l 326 95 l 95 95 l 95 0 l 713 0 l 713 95 l 449 95 l 449 414 b 696 652 449 578 544 652 z "},"s":{"ha":833,"x_min":0,"x_max":0,"o":"m 421 92 b 177 157 322 92 239 113 l 138 52 b 431 -17 206 2 315 -17 b 743 216 595 -17 743 52 b 516 427 743 358 629 397 b 290 559 435 449 290 460 b 432 671 290 643 359 671 b 660 620 515 671 597 655 l 699 720 b 426 766 623 755 532 766 b 146 555 281 766 146 701 b 373 336 146 412 258 366 b 600 206 452 316 600 303 b 421 92 600 112 515 92 z "},"t":{"ha":833,"x_min":0,"x_max":0,"o":"m 462 649 l 794 649 l 794 744 l 462 744 l 462 1037 l 338 1000 l 338 744 l 142 744 l 142 649 l 338 649 l 338 338 b 680 0 338 87 413 0 l 802 0 l 802 95 l 675 95 b 462 300 525 95 462 142 z "},"u":{"ha":833,"x_min":0,"x_max":0,"o":"m 416 -17 b 704 274 597 -17 704 94 l 704 744 l 581 744 l 581 263 b 416 78 581 157 530 78 b 252 263 303 78 252 157 l 252 744 l 129 744 l 129 274 b 416 -17 129 94 236 -17 z "},"v":{"ha":833,"x_min":0,"x_max":0,"o":"m 419 128 l 201 744 l 59 744 l 347 0 l 484 0 l 774 744 l 637 744 b 419 128 564 534 496 336 z "},"w":{"ha":833,"x_min":0,"x_max":0,"o":"m 293 0 l 426 599 l 536 0 l 667 0 l 817 744 l 700 744 l 608 151 l 500 744 l 353 744 l 235 149 l 140 744 l 16 744 l 167 0 z "},"x":{"ha":833,"x_min":0,"x_max":0,"o":"m 107 744 l 339 380 l 95 0 l 231 0 l 420 296 l 602 0 l 739 0 l 502 383 l 730 744 l 602 744 l 425 458 l 248 744 z "},"y":{"ha":833,"x_min":0,"x_max":0,"o":"m 442 139 l 212 744 l 64 744 b 372 16 64 744 161 503 b 109 -181 364 -140 252 -166 l 109 -287 b 495 -39 302 -267 446 -212 b 511 12 500 -23 504 -3 l 511 11 b 803 744 572 172 803 744 l 667 744 z "},"z":{"ha":833,"x_min":0,"x_max":0,"o":"m 144 744 l 144 649 l 510 649 l 131 96 l 131 0 l 690 0 l 690 95 l 273 95 l 665 650 l 665 744 z "},"{":{"ha":833,"x_min":0,"x_max":0,"o":"m 349 309 l 349 151 b 592 -104 349 -24 413 -104 l 747 -103 l 747 -12 l 592 -12 b 499 151 504 -12 499 63 l 499 315 b 332 526 499 450 433 487 b 499 739 433 566 499 604 l 499 902 b 592 1064 499 990 504 1064 l 747 1064 l 747 1156 l 592 1157 b 349 902 413 1158 349 1077 l 349 744 b 153 572 349 633 262 579 l 153 481 b 349 309 262 474 349 420 z "},"|":{"ha":833,"x_min":0,"x_max":0,"o":"m 359 -299 l 469 -299 l 469 1075 l 359 1075 z "},"}":{"ha":833,"x_min":0,"x_max":0,"o":"m 553 744 l 553 902 b 309 1157 553 1077 488 1158 l 154 1156 l 154 1064 l 309 1064 b 402 902 397 1064 402 990 l 402 739 b 568 526 402 604 467 566 b 402 315 467 487 402 450 l 402 151 b 309 -12 402 63 397 -12 l 154 -12 l 154 -103 l 309 -104 b 553 151 488 -104 553 -24 l 553 309 b 749 481 553 420 640 474 l 749 572 b 553 744 640 579 553 633 z "},"~":{"ha":833,"x_min":0,"x_max":0,"o":"m 903 751 l 779 780 b 699 650 769 730 757 650 b 684 653 694 650 688 652 b 473 729 612 671 538 703 b 285 780 418 751 352 780 b 103 572 172 780 122 668 l 227 532 b 309 661 234 583 252 661 b 328 657 315 661 321 659 b 553 576 401 635 483 602 b 722 530 604 557 665 530 b 903 751 855 530 880 642 z "},"":{"ha":833,"x_min":0,"x_max":0,"o":""},"":{"ha":833,"x_min":0,"x_max":0,"o":""},"":{"ha":833,"x_min":0,"x_max":0,"o":""},"":{"ha":833,"x_min":0,"x_max":0,"o":""},"":{"ha":833,"x_min":0,"x_max":0,"o":""},"":{"ha":833,"x_min":0,"x_max":0,"o":""},"":{"ha":833,"x_min":0,"x_max":0,"o":""},"":{"ha":833,"x_min":0,"x_max":0,"o":""},"":{"ha":833,"x_min":0,"x_max":0,"o":""},"":{"ha":833,"x_min":0,"x_max":0,"o":""},"":{"ha":833,"x_min":0,"x_max":0,"o":""},"":{"ha":833,"x_min":0,"x_max":0,"o":""},"":{"ha":833,"x_min":0,"x_max":0,"o":""},"":{"ha":833,"x_min":0,"x_max":0,"o":""},"":{"ha":833,"x_min":0,"x_max":0,"o":""},"":{"ha":833,"x_min":0,"x_max":0,"o":""},"":{"ha":833,"x_min":0,"x_max":0,"o":""},"":{"ha":833,"x_min":0,"x_max":0,"o":""},"":{"ha":833,"x_min":0,"x_max":0,"o":""},"":{"ha":833,"x_min":0,"x_max":0,"o":""},"":{"ha":833,"x_min":0,"x_max":0,"o":""},"":{"ha":833,"x_min":0,"x_max":0,"o":""},"":{"ha":833,"x_min":0,"x_max":0,"o":""},"":{"ha":833,"x_min":0,"x_max":0,"o":""},"":{"ha":833,"x_min":0,"x_max":0,"o":""},"":{"ha":833,"x_min":0,"x_max":0,"o":""},"":{"ha":833,"x_min":0,"x_max":0,"o":""},"":{"ha":833,"x_min":0,"x_max":0,"o":""},"":{"ha":833,"x_min":0,"x_max":0,"o":""},"":{"ha":833,"x_min":0,"x_max":0,"o":""},"":{"ha":833,"x_min":0,"x_max":0,"o":""},"":{"ha":833,"x_min":0,"x_max":0,"o":""},"":{"ha":833,"x_min":0,"x_max":0,"o":""}," ":{"ha":833,"x_min":0,"x_max":0,"o":""},"¡":{"ha":833,"x_min":0,"x_max":0,"o":"m 368 -283 l 485 -283 l 485 511 l 368 511 z m 490 803 l 330 803 l 330 650 l 490 650 z "},"¢":{"ha":833,"x_min":0,"x_max":0,"o":"m 528 79 l 565 670 b 709 589 626 659 676 630 l 765 667 b 570 768 723 723 655 757 l 581 928 l 484 928 l 474 772 b 117 370 277 761 117 614 b 425 -12 117 157 236 15 l 425 -188 l 510 -188 l 520 -16 b 770 64 623 -14 707 15 l 736 165 b 528 79 684 120 615 84 z m 468 670 l 431 89 b 247 375 309 119 247 227 b 468 670 247 530 331 649 z "},"£":{"ha":833,"x_min":0,"x_max":0,"o":"m 547 962 b 753 911 628 962 699 944 l 792 999 b 545 1066 734 1045 648 1066 b 212 696 319 1066 212 911 b 217 612 212 669 214 641 l 81 612 l 81 508 l 218 508 l 218 324 b 81 102 218 203 160 146 l 81 0 l 806 0 l 806 104 l 272 104 b 347 410 340 157 347 286 b 347 508 347 444 347 477 l 593 508 l 593 612 l 345 612 l 342 697 b 547 962 342 850 392 962 z "},"¤":{"ha":833,"x_min":0,"x_max":0,"o":"m 524 750 l 602 946 l 571 958 l 494 761 b 391 774 463 769 428 774 b 285 753 350 774 315 766 l 172 958 l 142 946 l 256 741 b 118 483 171 696 118 609 b 284 221 118 347 184 260 l 214 41 l 242 28 l 314 210 b 411 201 342 202 376 201 b 537 232 460 201 501 216 l 650 28 l 675 41 l 563 246 b 680 488 633 291 680 376 l 680 488 b 524 750 680 625 621 707 z m 187 485 b 398 720 187 618 264 720 b 611 486 537 720 611 623 b 401 253 611 352 536 253 b 187 485 266 253 187 351 z "},"¥":{"ha":833,"x_min":0,"x_max":0,"o":"m 414 0 l 545 0 l 545 208 l 838 208 l 838 311 l 543 311 l 543 422 l 836 422 l 836 528 l 563 528 l 905 1045 l 764 1045 l 485 586 b 207 1045 394 743 300 891 l 53 1045 l 387 528 l 111 528 l 111 422 l 414 422 l 414 311 l 108 311 l 116 208 l 414 208 z "},"¦":{"ha":833,"x_min":0,"x_max":0,"o":"m 366 290 l 366 -361 l 482 -361 l 482 290 z m 366 1137 l 366 498 l 482 498 l 482 1137 z "},"§":{"ha":833,"x_min":0,"x_max":0,"o":"m 651 960 l 650 1069 b 479 1099 600 1084 541 1099 b 192 892 326 1099 192 1045 b 306 719 192 804 245 754 b 165 538 241 685 165 634 b 363 326 165 411 273 363 b 562 179 431 298 562 271 b 384 66 562 94 469 66 b 184 113 307 66 240 87 l 185 3 b 388 -35 243 -21 310 -35 b 692 186 541 -35 692 33 b 571 354 692 272 632 323 b 710 543 633 391 710 447 b 515 739 710 662 601 703 b 321 902 441 769 321 800 b 482 999 321 982 403 999 b 651 960 547 999 603 981 z m 469 403 b 298 547 409 428 298 462 b 397 672 298 612 353 649 b 576 533 453 644 576 616 b 469 403 576 467 512 428 z "},"¨":{"ha":833,"x_min":0,"x_max":0,"o":"m 224 982 b 231 860 229 942 231 901 b 356 867 272 865 313 867 b 349 989 351 907 349 947 b 224 982 309 985 267 982 z m 519 867 b 642 860 559 867 600 865 b 650 982 642 903 644 943 b 525 989 606 982 565 985 b 519 867 525 947 522 907 z "},"©":{"ha":833,"x_min":0,"x_max":0,"o":"m 1216 534 l 1215 534 b 1132 817 1215 648 1179 743 b 609 1092 1033 971 859 1092 b 304 1017 488 1092 387 1061 b 4 534 145 931 4 775 b 87 250 4 418 39 326 b 613 -23 186 96 363 -23 b 918 52 733 -23 836 8 b 1216 534 1077 136 1216 294 z m 608 1006 b 1119 533 844 1006 1119 847 b 594 62 1119 267 914 62 b 99 551 348 62 99 237 b 608 1006 99 803 311 1006 z m 837 725 l 861 814 b 640 889 806 859 734 889 b 271 537 450 889 271 768 b 632 183 271 357 404 183 b 863 250 727 183 804 208 l 833 338 b 645 280 788 300 723 280 b 387 539 488 280 387 383 l 385 539 b 635 795 385 690 483 795 b 837 725 720 795 788 767 z "},"ª":{"ha":833,"x_min":0,"x_max":0,"o":"m 222 994 l 272 939 b 429 1008 302 985 357 1008 b 541 892 515 1008 541 977 b 187 718 391 872 187 886 b 376 566 187 616 275 566 b 542 633 450 566 507 589 l 547 578 l 645 578 b 638 736 640 631 638 684 b 641 909 638 793 641 850 b 435 1088 641 1033 559 1088 b 222 994 334 1088 260 1058 z m 393 641 b 291 720 334 641 291 660 b 541 817 291 819 454 802 l 541 799 b 393 641 541 706 487 641 z "},"«":{"ha":833,"x_min":0,"x_max":0,"o":"m 460 673 l 340 673 l 134 399 l 336 125 l 453 125 l 262 399 z m 736 673 l 617 673 l 412 399 l 613 125 l 730 125 l 538 399 z "},"¬":{"ha":833,"x_min":0,"x_max":0,"o":"m 777 485 l 777 175 l 889 175 l 889 587 l 103 587 l 103 485 z "},"­":{"ha":833,"x_min":0,"x_max":0,"o":""},"®":{"ha":833,"x_min":0,"x_max":0,"o":"m 1216 532 l 1215 532 b 1132 816 1215 647 1179 741 b 609 1090 1034 970 859 1090 b 304 1015 488 1090 387 1059 b 4 533 146 930 4 774 b 87 248 4 417 39 323 b 613 -25 186 94 363 -25 b 918 50 733 -25 836 7 b 1216 532 1077 135 1216 292 z m 99 534 b 625 1005 99 800 304 1005 b 1119 516 870 1005 1119 829 b 629 61 1119 286 930 61 b 99 534 376 61 99 214 z m 791 201 l 918 201 b 704 502 852 304 791 419 b 903 688 810 514 903 571 b 579 877 903 846 739 877 l 580 878 l 376 878 l 376 201 l 487 201 l 487 489 l 589 489 b 791 201 678 424 734 297 z m 578 575 l 485 575 l 485 788 l 647 788 b 787 677 729 788 787 762 b 578 575 787 572 683 575 z "},"¯":{"ha":833,"x_min":0,"x_max":0,"o":"m 221 1017 l 863 1017 l 863 1112 l 221 1112 z "},"°":{"ha":833,"x_min":0,"x_max":0,"o":"m 443 715 b 297 848 363 715 297 769 b 443 978 297 926 365 978 b 589 848 522 978 589 926 b 443 715 589 769 522 715 z m 682 846 b 443 1063 682 953 587 1063 b 203 846 315 1063 203 975 b 443 630 203 743 298 630 b 682 846 570 630 682 719 z "},"±":{"ha":833,"x_min":0,"x_max":0,"o":"m 437 814 l 437 539 l 103 539 l 103 437 l 439 437 l 439 164 l 551 164 l 551 437 l 888 437 l 888 539 l 549 539 l 549 814 z m 103 102 l 103 0 l 890 0 l 890 102 z "},"²":{"ha":833,"x_min":0,"x_max":0,"o":"m 410 1061 b 216 935 315 1061 246 1002 l 281 878 b 421 974 305 928 349 974 b 526 892 478 974 526 949 l 525 892 b 507 836 525 876 519 857 b 212 526 437 716 311 617 l 212 445 l 621 445 l 621 532 l 349 532 b 524 692 404 579 473 635 b 621 893 569 741 621 808 b 410 1061 621 1010 526 1061 z "},"³":{"ha":833,"x_min":0,"x_max":0,"o":"m 257 574 l 212 503 b 397 431 256 460 317 431 b 621 614 516 431 621 496 b 525 760 621 689 581 735 b 606 886 570 784 606 821 b 402 1061 606 998 515 1061 b 212 986 320 1061 258 1028 l 256 916 b 400 972 292 943 340 972 b 506 890 462 972 506 951 b 321 801 506 802 408 801 l 321 713 l 363 714 b 524 615 444 714 524 696 b 393 515 524 545 463 515 l 393 516 b 257 574 335 516 290 544 z "},"´":{"ha":833,"x_min":0,"x_max":0,"o":"m 283 860 l 380 860 l 618 1156 l 460 1156 z "},"µ":{"ha":833,"x_min":0,"x_max":0,"o":""},"¶":{"ha":833,"x_min":0,"x_max":0,"o":"m 45 832 b 297 578 45 685 151 581 l 297 -109 l 404 -109 l 404 977 l 559 977 l 559 -109 l 657 -109 l 657 977 l 722 977 l 722 1068 l 432 1068 b 45 832 237 1068 45 1027 z "},"·":{"ha":833,"x_min":0,"x_max":0,"o":"m 335 378 l 498 378 l 498 532 l 335 532 z "},"¸":{"ha":833,"x_min":0,"x_max":0,"o":"m 496 -177 b 410 -230 496 -220 453 -230 b 296 -212 370 -230 331 -220 l 290 -275 b 418 -290 330 -283 372 -290 b 602 -176 510 -290 602 -268 b 452 -66 602 -94 534 -66 l 446 -66 l 459 13 l 386 13 l 362 -127 b 413 -124 380 -126 394 -124 b 496 -177 456 -124 496 -135 z "},"¹":{"ha":833,"x_min":0,"x_max":0,"o":"m 382 937 l 382 532 l 292 532 l 292 445 l 565 445 l 565 530 l 473 530 l 473 1050 l 395 1040 b 269 981 355 1016 316 997 l 269 886 b 382 937 309 901 345 918 z "},"º":{"ha":833,"x_min":0,"x_max":0,"o":"m 464 565 b 732 825 625 565 732 666 b 463 1086 732 989 628 1086 b 191 827 301 1086 191 987 b 464 565 191 663 298 565 z m 464 644 b 296 826 355 644 296 718 b 462 1008 296 932 354 1008 b 629 823 573 1008 629 933 b 464 644 629 720 568 644 z "},"»":{"ha":833,"x_min":0,"x_max":0,"o":"m 134 125 l 253 125 l 460 399 l 258 673 l 138 673 l 332 399 z m 431 125 l 549 125 l 757 399 l 554 673 l 437 673 l 628 399 z "},"¼":{"ha":833,"x_min":0,"x_max":0,"o":"m 918 166 l 918 28 l 1008 1 l 1008 166 l 1099 166 l 1092 245 l 1010 245 l 1010 614 l 909 614 l 635 234 l 635 166 z m 277 1 l 955 1058 l 844 1058 l 164 1 z m 130 937 l 130 532 l 39 532 l 39 445 l 313 445 l 313 530 l 221 530 l 221 1050 l 142 1040 b 16 981 101 1015 60 996 l 16 886 b 130 937 54 899 92 917 z m 918 245 l 740 245 l 918 492 b 917 387 918 456 917 422 b 918 245 917 339 918 292 z "},"½":{"ha":833,"x_min":0,"x_max":0,"o":"m 819 597 b 627 473 724 597 656 539 l 690 415 b 830 511 715 465 758 511 b 936 429 888 511 936 486 l 935 429 b 916 373 935 412 928 394 b 620 64 846 252 720 155 l 620 -18 l 1031 -18 l 1031 68 l 758 68 b 934 229 813 116 883 172 b 1031 431 979 278 1031 345 b 819 597 1031 549 937 597 z m 219 1 l 897 1058 l 787 1058 l 106 1 z m 116 937 l 116 532 l 24 532 l 24 445 l 298 445 l 298 530 l 206 530 l 206 1050 l 127 1040 b 2 981 89 1016 48 997 l 1 886 b 116 937 41 901 79 918 z "},"¾":{"ha":833,"x_min":0,"x_max":0,"o":"m 938 168 l 938 30 l 1028 -1 l 1028 168 l 1119 168 l 1112 246 l 1029 246 l 1029 616 l 928 616 l 654 235 l 654 168 z m 310 -1 l 988 1057 l 877 1057 l 197 -1 z m 58 574 l 14 503 b 198 431 58 460 118 431 b 423 614 317 431 423 496 b 326 760 423 689 383 735 b 407 886 380 787 407 829 b 203 1061 407 998 317 1061 b 14 986 121 1061 59 1029 l 58 916 b 202 972 94 943 142 972 b 307 890 264 972 307 951 b 123 801 307 802 210 801 l 123 713 l 165 714 b 326 615 245 714 326 696 b 195 515 326 545 264 515 l 195 516 b 58 574 136 516 92 544 z m 937 246 l 759 246 l 938 492 b 937 345 937 444 937 395 z "},"¿":{"ha":833,"x_min":0,"x_max":0,"o":"m 410 703 b 191 416 410 601 264 503 b 114 245 154 373 114 318 b 461 -9 114 57 273 -9 b 650 39 534 -9 598 14 l 650 146 b 461 96 599 119 536 96 b 241 252 345 96 241 135 b 315 407 241 322 277 369 b 528 694 391 483 528 546 l 528 694 b 520 809 528 732 525 770 l 397 809 b 410 703 404 777 410 741 z m 542 1088 l 378 1088 l 378 933 l 542 933 z "},"À":{"ha":833,"x_min":0,"x_max":0,"o":"m 272 1407 l 112 1407 l 369 1111 l 464 1111 z m 494 1011 l 339 1011 l 27 0 l 165 0 l 267 321 l 565 321 l 667 0 l 806 0 z m 294 431 l 418 831 l 539 431 z "},"Á":{"ha":833,"x_min":0,"x_max":0,"o":"m 368 1111 l 465 1111 l 703 1407 l 545 1407 z m 494 1011 l 339 1011 l 27 0 l 165 0 l 267 321 l 565 321 l 667 0 l 806 0 z m 294 431 l 418 831 l 539 431 z "},"Â":{"ha":833,"x_min":0,"x_max":0,"o":"m 473 1348 l 360 1348 l 184 1111 l 276 1111 l 413 1270 l 552 1111 l 649 1111 z m 494 1011 l 339 1011 l 27 0 l 165 0 l 267 321 l 565 321 l 667 0 l 806 0 z m 294 431 l 418 831 l 539 431 z "},"Ã":{"ha":833,"x_min":0,"x_max":0,"o":"m 682 1278 l 588 1278 b 533 1207 586 1242 573 1207 b 310 1286 438 1207 408 1286 b 151 1120 207 1286 153 1221 l 244 1120 b 306 1190 245 1160 263 1190 b 531 1111 400 1190 434 1111 b 682 1278 630 1111 677 1184 z m 494 1011 l 339 1011 l 27 0 l 165 0 l 267 321 l 565 321 l 667 0 l 806 0 z m 294 431 l 418 831 l 539 431 z "},"Ä":{"ha":833,"x_min":0,"x_max":0,"o":"m 203 1233 b 211 1111 208 1193 211 1152 b 336 1118 252 1116 293 1118 b 328 1240 331 1158 328 1198 b 203 1233 288 1236 247 1233 z m 498 1118 b 621 1111 539 1118 580 1116 b 629 1233 621 1154 624 1194 b 505 1240 586 1233 545 1236 b 498 1118 505 1198 502 1158 z m 494 1011 l 339 1011 l 27 0 l 165 0 l 267 321 l 565 321 l 667 0 l 806 0 z m 294 431 l 418 831 l 539 431 z "},"Å":{"ha":833,"x_min":0,"x_max":0,"o":"m 425 1236 b 500 1160 466 1236 500 1201 b 405 1082 500 1108 457 1082 b 333 1159 363 1082 333 1118 b 425 1236 333 1210 374 1236 z m 574 1160 b 417 1300 574 1244 502 1300 b 259 1160 331 1300 259 1245 b 418 1019 259 1074 332 1019 b 574 1160 501 1019 574 1077 z m 494 1011 l 339 1011 l 27 0 l 165 0 l 267 321 l 565 321 l 667 0 l 806 0 z m 294 431 l 418 831 l 539 431 z "},"Æ":{"ha":833,"x_min":0,"x_max":0,"o":"m 1406 1072 l 623 1072 l 0 0 l 146 0 l 317 293 l 801 293 l 825 0 l 1423 0 l 1423 109 l 939 109 l 909 494 l 1375 494 l 1375 604 l 894 604 l 866 963 l 1406 963 z m 376 401 l 705 963 l 742 963 l 787 401 z "},"Ç":{"ha":833,"x_min":0,"x_max":0,"o":"m 574 -197 b 488 -250 574 -240 532 -250 b 375 -232 448 -250 410 -240 l 369 -294 b 497 -310 409 -303 450 -310 b 681 -196 589 -310 681 -288 b 530 -86 681 -114 612 -86 l 524 -86 l 538 -7 l 465 -7 l 441 -147 b 492 -144 459 -146 473 -144 b 574 -197 534 -144 574 -155 z m 786 942 b 501 1028 718 998 621 1028 b 87 509 251 1028 87 816 b 501 -17 87 215 232 -17 b 787 70 621 -17 718 14 l 740 165 b 514 88 688 125 610 88 b 220 507 315 88 220 275 b 515 924 220 728 304 924 b 739 853 610 924 684 893 z "},"È":{"ha":833,"x_min":0,"x_max":0,"o":"m 304 1407 l 144 1407 l 402 1111 l 496 1111 z m 274 464 l 718 464 l 718 572 l 274 572 l 274 912 l 741 912 l 751 1011 l 147 1011 l 147 0 l 764 0 l 774 99 l 274 99 z "},"É":{"ha":833,"x_min":0,"x_max":0,"o":"m 401 1111 l 497 1111 l 735 1407 l 578 1407 z m 274 464 l 718 464 l 718 572 l 274 572 l 274 912 l 741 912 l 751 1011 l 147 1011 l 147 0 l 764 0 l 774 99 l 274 99 z "},"Ê":{"ha":833,"x_min":0,"x_max":0,"o":"m 506 1348 l 393 1348 l 217 1111 l 309 1111 l 446 1270 l 585 1111 l 682 1111 z m 274 464 l 718 464 l 718 572 l 274 572 l 274 912 l 741 912 l 751 1011 l 147 1011 l 147 0 l 764 0 l 774 99 l 274 99 z "},"Ë":{"ha":833,"x_min":0,"x_max":0,"o":"m 236 1233 b 244 1111 241 1193 244 1152 b 369 1118 284 1116 326 1118 b 361 1240 364 1158 361 1198 b 236 1233 321 1236 280 1233 z m 531 1118 b 654 1111 572 1118 613 1116 b 662 1233 654 1154 657 1194 b 537 1240 619 1233 577 1236 b 531 1118 537 1198 535 1158 z m 274 464 l 718 464 l 718 572 l 274 572 l 274 912 l 741 912 l 751 1011 l 147 1011 l 147 0 l 764 0 l 774 99 l 274 99 z "},"Ì":{"ha":833,"x_min":0,"x_max":0,"o":"m 272 1407 l 112 1407 l 370 1111 l 464 1111 z m 132 912 l 351 912 l 351 99 l 132 99 l 132 0 l 702 0 l 702 99 l 477 99 l 477 912 l 702 912 l 702 1011 l 132 1011 z "},"Í":{"ha":833,"x_min":0,"x_max":0,"o":"m 369 1111 l 465 1111 l 703 1407 l 546 1407 z m 132 912 l 351 912 l 351 99 l 132 99 l 132 0 l 702 0 l 702 99 l 477 99 l 477 912 l 702 912 l 702 1011 l 132 1011 z "},"Î":{"ha":833,"x_min":0,"x_max":0,"o":"m 473 1348 l 360 1348 l 184 1111 l 277 1111 l 414 1270 l 552 1111 l 649 1111 z m 132 912 l 351 912 l 351 99 l 132 99 l 132 0 l 702 0 l 702 99 l 477 99 l 477 912 l 702 912 l 702 1011 l 132 1011 z "},"Ï":{"ha":833,"x_min":0,"x_max":0,"o":"m 204 1233 b 211 1111 209 1193 211 1152 b 336 1118 252 1116 293 1118 b 329 1240 331 1158 329 1198 b 204 1233 289 1236 247 1233 z m 499 1118 b 622 1111 539 1118 580 1116 b 630 1233 622 1154 624 1194 b 505 1240 586 1233 545 1236 b 499 1118 505 1198 502 1158 z m 132 912 l 351 912 l 351 99 l 132 99 l 132 0 l 702 0 l 702 99 l 477 99 l 477 912 l 702 912 l 702 1011 l 132 1011 z "},"Ð":{"ha":833,"x_min":0,"x_max":0,"o":"m 382 1072 l 146 1072 l 146 585 l 0 585 l 0 484 l 146 484 l 146 0 l 458 0 b 1074 533 816 0 1074 176 b 382 1072 1074 943 791 1072 z m 471 109 l 275 109 l 275 484 l 429 484 l 429 585 l 275 585 l 275 963 l 398 963 b 937 530 731 963 937 865 b 471 109 937 248 754 109 z "},"Ñ":{"ha":833,"x_min":0,"x_max":0,"o":"m 682 1278 l 588 1278 b 533 1207 586 1242 573 1207 b 310 1286 438 1207 408 1286 b 151 1120 207 1286 153 1221 l 244 1120 b 306 1190 245 1160 263 1190 b 531 1111 400 1190 434 1111 b 682 1278 630 1111 677 1184 z m 731 0 l 731 1011 l 618 1011 l 618 196 l 248 1011 l 102 1011 l 102 0 l 217 0 l 217 818 l 582 0 z "},"Ò":{"ha":833,"x_min":0,"x_max":0,"o":"m 272 1407 l 112 1407 l 369 1111 l 464 1111 z m 416 -17 b 749 507 646 -17 749 229 b 416 1028 749 762 669 1028 b 83 507 164 1028 83 762 b 416 -17 83 229 186 -17 z m 416 924 b 616 506 550 924 616 740 b 416 88 616 272 549 88 b 216 506 283 88 216 272 b 416 924 216 740 283 924 z "},"Ó":{"ha":833,"x_min":0,"x_max":0,"o":"m 368 1111 l 465 1111 l 703 1407 l 545 1407 z m 416 -17 b 749 507 646 -17 749 229 b 416 1028 749 762 669 1028 b 83 507 164 1028 83 762 b 416 -17 83 229 186 -17 z m 416 924 b 616 506 550 924 616 740 b 416 88 616 272 549 88 b 216 506 283 88 216 272 b 416 924 216 740 283 924 z "},"Ô":{"ha":833,"x_min":0,"x_max":0,"o":"m 473 1348 l 360 1348 l 184 1111 l 276 1111 l 413 1270 l 552 1111 l 649 1111 z m 416 -17 b 749 507 646 -17 749 229 b 416 1028 749 762 669 1028 b 83 507 164 1028 83 762 b 416 -17 83 229 186 -17 z m 416 924 b 616 506 550 924 616 740 b 416 88 616 272 549 88 b 216 506 283 88 216 272 b 416 924 216 740 283 924 z "},"Õ":{"ha":833,"x_min":0,"x_max":0,"o":"m 682 1278 l 588 1278 b 533 1207 586 1242 573 1207 b 310 1286 438 1207 408 1286 b 151 1120 207 1286 153 1221 l 244 1120 b 306 1190 245 1160 263 1190 b 531 1111 400 1190 434 1111 b 682 1278 630 1111 677 1184 z m 416 -17 b 749 507 646 -17 749 229 b 416 1028 749 762 669 1028 b 83 507 164 1028 83 762 b 416 -17 83 229 186 -17 z m 416 924 b 616 506 550 924 616 740 b 416 88 616 272 549 88 b 216 506 283 88 216 272 b 416 924 216 740 283 924 z "},"Ö":{"ha":833,"x_min":0,"x_max":0,"o":"m 203 1233 b 211 1111 208 1193 211 1152 b 336 1118 252 1116 293 1118 b 328 1240 331 1158 328 1198 b 203 1233 288 1236 247 1233 z m 498 1118 b 621 1111 539 1118 580 1116 b 629 1233 621 1154 624 1194 b 505 1240 586 1233 545 1236 b 498 1118 505 1198 502 1158 z m 416 -17 b 749 507 646 -17 749 229 b 416 1028 749 762 669 1028 b 83 507 164 1028 83 762 b 416 -17 83 229 186 -17 z m 416 924 b 616 506 550 924 616 740 b 416 88 616 272 549 88 b 216 506 283 88 216 272 b 416 924 216 740 283 924 z "},"×":{"ha":833,"x_min":0,"x_max":0,"o":"m 730 190 l 507 408 l 730 626 l 652 703 l 429 484 l 207 703 l 129 627 l 351 408 l 129 189 l 207 114 l 429 332 l 652 114 z "},"Ø":{"ha":833,"x_min":0,"x_max":0,"o":"m 191 -151 l 743 1136 l 648 1164 l 99 -116 z m 416 -17 b 749 507 646 -17 749 229 b 416 1028 749 762 669 1028 b 83 507 164 1028 83 762 b 416 -17 83 229 186 -17 z m 416 920 b 616 506 550 920 616 740 b 416 92 616 272 549 92 b 216 506 283 92 216 272 b 416 920 216 740 283 920 z "},"Ù":{"ha":833,"x_min":0,"x_max":0,"o":"m 272 1407 l 112 1407 l 369 1111 l 464 1111 z m 416 -17 b 745 368 649 -17 745 127 l 745 1011 l 618 1011 l 618 372 b 416 88 618 211 579 88 b 214 372 254 88 214 211 l 214 1011 l 87 1011 l 87 368 b 416 -17 87 127 184 -17 z "},"Ú":{"ha":833,"x_min":0,"x_max":0,"o":"m 368 1111 l 465 1111 l 703 1407 l 545 1407 z m 416 -17 b 745 368 649 -17 745 127 l 745 1011 l 618 1011 l 618 372 b 416 88 618 211 579 88 b 214 372 254 88 214 211 l 214 1011 l 87 1011 l 87 368 b 416 -17 87 127 184 -17 z "},"Û":{"ha":833,"x_min":0,"x_max":0,"o":"m 473 1348 l 360 1348 l 184 1111 l 276 1111 l 413 1270 l 552 1111 l 649 1111 z m 416 -17 b 745 368 649 -17 745 127 l 745 1011 l 618 1011 l 618 372 b 416 88 618 211 579 88 b 214 372 254 88 214 211 l 214 1011 l 87 1011 l 87 368 b 416 -17 87 127 184 -17 z "},"Ü":{"ha":833,"x_min":0,"x_max":0,"o":"m 203 1233 b 211 1111 208 1193 211 1152 b 336 1118 252 1116 293 1118 b 328 1240 331 1158 328 1198 b 203 1233 288 1236 247 1233 z m 498 1118 b 621 1111 539 1118 580 1116 b 629 1233 621 1154 624 1194 b 505 1240 586 1233 545 1236 b 498 1118 505 1198 502 1158 z m 416 -17 b 745 368 649 -17 745 127 l 745 1011 l 618 1011 l 618 372 b 416 88 618 211 579 88 b 214 372 254 88 214 211 l 214 1011 l 87 1011 l 87 368 b 416 -17 87 127 184 -17 z "},"Ý":{"ha":833,"x_min":0,"x_max":0,"o":"m 369 1111 l 465 1111 l 703 1407 l 546 1407 z m 485 0 l 485 402 l 800 1011 l 644 1011 l 414 534 l 186 1011 l 33 1011 l 341 402 l 341 0 z "},"Þ":{"ha":833,"x_min":0,"x_max":0,"o":"m 867 645 b 248 966 867 962 564 966 l 248 1072 l 119 1072 l 119 0 l 248 0 l 248 326 b 867 645 552 326 867 342 z m 444 436 l 248 436 l 248 857 l 409 857 b 729 648 584 857 729 825 b 444 436 729 488 605 436 z "},"ß":{"ha":833,"x_min":0,"x_max":0,"o":"m 450 1084 b 111 757 237 1084 111 969 l 111 0 l 259 0 l 259 743 b 448 978 259 876 313 978 b 625 850 540 978 625 943 b 521 694 625 772 568 728 b 416 570 483 667 416 630 b 585 425 416 508 523 461 b 753 235 651 387 753 338 b 605 94 753 147 693 94 b 415 153 530 94 466 123 l 367 52 b 616 -18 425 7 517 -18 b 913 246 792 -18 913 71 b 558 582 913 429 690 501 b 774 852 640 641 774 713 b 450 1084 774 1020 618 1084 z "},"à":{"ha":833,"x_min":0,"x_max":0,"o":"m 299 1145 l 139 1145 l 397 849 l 491 849 z m 363 -17 b 593 57 444 -17 535 22 l 610 0 l 718 0 l 718 536 b 444 766 718 701 599 766 b 155 715 335 766 237 750 l 184 620 b 431 677 248 652 337 677 b 594 513 534 677 594 626 l 594 395 l 495 395 b 120 190 297 395 120 374 b 363 -17 120 55 229 -17 z m 368 73 b 241 196 289 73 241 120 b 493 317 241 312 385 317 l 594 317 l 594 127 b 368 73 530 102 450 73 z "},"á":{"ha":833,"x_min":0,"x_max":0,"o":"m 396 849 l 492 849 l 730 1145 l 573 1145 z m 363 -17 b 593 57 444 -17 535 22 l 610 0 l 718 0 l 718 536 b 444 766 718 701 599 766 b 155 715 335 766 237 750 l 184 620 b 431 677 248 652 337 677 b 594 513 534 677 594 626 l 594 395 l 495 395 b 120 190 297 395 120 374 b 363 -17 120 55 229 -17 z m 368 73 b 241 196 289 73 241 120 b 493 317 241 312 385 317 l 594 317 l 594 127 b 368 73 530 102 450 73 z "},"â":{"ha":833,"x_min":0,"x_max":0,"o":"m 501 1086 l 388 1086 l 212 849 l 304 849 l 441 1008 l 579 849 l 676 849 z m 363 -17 b 593 57 444 -17 535 22 l 610 0 l 718 0 l 718 536 b 444 766 718 701 599 766 b 155 715 335 766 237 750 l 184 620 b 431 677 248 652 337 677 b 594 513 534 677 594 626 l 594 395 l 495 395 b 120 190 297 395 120 374 b 363 -17 120 55 229 -17 z m 368 73 b 241 196 289 73 241 120 b 493 317 241 312 385 317 l 594 317 l 594 127 b 368 73 530 102 450 73 z "},"ã":{"ha":833,"x_min":0,"x_max":0,"o":"m 710 1017 l 616 1017 b 561 945 613 980 601 945 b 337 1025 466 945 436 1025 b 179 859 234 1025 181 959 l 272 859 b 334 928 273 899 291 928 b 558 849 428 928 462 849 b 710 1017 658 849 705 922 z m 363 -17 b 593 57 444 -17 535 22 l 610 0 l 718 0 l 718 536 b 444 766 718 701 599 766 b 155 715 335 766 237 750 l 184 620 b 431 677 248 652 337 677 b 594 513 534 677 594 626 l 594 395 l 495 395 b 120 190 297 395 120 374 b 363 -17 120 55 229 -17 z m 368 73 b 241 196 289 73 241 120 b 493 317 241 312 385 317 l 594 317 l 594 127 b 368 73 530 102 450 73 z "},"ä":{"ha":833,"x_min":0,"x_max":0,"o":"m 231 971 b 239 849 236 931 239 890 b 363 857 279 854 321 857 b 356 978 359 897 356 937 b 231 971 316 974 275 971 z m 526 857 b 649 849 567 857 608 854 b 657 971 649 892 652 932 b 532 978 614 971 572 974 b 526 857 532 936 530 896 z m 363 -17 b 593 57 444 -17 535 22 l 610 0 l 718 0 l 718 536 b 444 766 718 701 599 766 b 155 715 335 766 237 750 l 184 620 b 431 677 248 652 337 677 b 594 513 534 677 594 626 l 594 395 l 495 395 b 120 190 297 395 120 374 b 363 -17 120 55 229 -17 z m 368 73 b 241 196 289 73 241 120 b 493 317 241 312 385 317 l 594 317 l 594 127 b 368 73 530 102 450 73 z "},"å":{"ha":833,"x_min":0,"x_max":0,"o":"m 453 1067 b 528 991 494 1067 528 1031 b 433 912 528 939 485 912 b 361 989 391 912 361 948 b 453 1067 361 1040 402 1067 z m 602 990 b 445 1130 602 1074 529 1130 b 287 990 359 1130 287 1076 b 446 849 287 905 360 849 b 602 990 529 849 602 907 z m 363 -17 b 593 57 444 -17 535 22 l 610 0 l 718 0 l 718 536 b 444 766 718 701 599 766 b 155 715 335 766 237 750 l 184 620 b 431 677 248 652 337 677 b 594 513 534 677 594 626 l 594 395 l 495 395 b 120 190 297 395 120 374 b 363 -17 120 55 229 -17 z m 368 73 b 241 196 289 73 241 120 b 493 317 241 312 385 317 l 594 317 l 594 127 b 368 73 530 102 450 73 z "},"æ":{"ha":833,"x_min":0,"x_max":0,"o":"m 779 66 l 724 151 b 595 87 693 116 653 87 b 477 353 519 87 482 205 l 793 353 l 793 394 b 597 766 793 597 726 766 b 437 670 533 766 477 732 b 256 766 404 738 337 766 b 68 714 189 766 120 749 l 98 606 b 250 657 139 641 194 657 b 364 533 328 657 364 618 l 364 403 l 354 403 b 37 190 184 403 37 381 b 218 -17 37 62 117 -17 b 443 64 303 -17 378 26 b 587 -17 479 13 527 -17 b 779 66 673 -17 730 15 z m 237 87 b 157 201 180 87 157 132 b 338 307 157 302 262 307 l 368 307 b 402 142 374 245 385 190 b 237 87 351 115 305 87 z m 696 443 l 481 443 b 597 663 487 559 522 663 b 696 443 667 663 690 557 z "},"ç":{"ha":833,"x_min":0,"x_max":0,"o":"m 534 -197 b 448 -250 534 -240 492 -250 b 335 -232 408 -250 370 -240 l 329 -294 b 457 -310 369 -303 410 -310 b 641 -196 549 -310 641 -288 b 490 -86 641 -114 572 -86 l 484 -86 l 498 -7 l 425 -7 l 401 -147 b 452 -144 419 -146 433 -144 b 534 -197 494 -144 534 -155 z m 224 378 b 469 671 224 554 299 671 b 677 592 554 671 623 640 l 724 692 b 461 766 657 740 568 766 b 80 377 224 766 80 612 b 461 -17 80 136 219 -17 b 724 58 572 -17 659 9 l 677 142 b 471 78 624 104 555 78 b 224 378 299 78 224 198 z "},"è":{"ha":833,"x_min":0,"x_max":0,"o":"m 285 1145 l 125 1145 l 383 849 l 477 849 z m 590 443 l 226 443 b 430 671 240 563 296 671 b 590 443 549 671 583 557 z m 420 -17 b 693 85 548 -17 623 22 l 639 169 b 429 78 581 108 511 78 b 222 353 282 78 228 209 l 707 353 l 708 394 b 430 766 708 591 627 766 b 97 376 220 766 97 595 b 420 -17 97 158 201 -17 z "},"é":{"ha":833,"x_min":0,"x_max":0,"o":"m 382 849 l 478 849 l 716 1145 l 559 1145 z m 590 443 l 226 443 b 430 671 240 563 296 671 b 590 443 549 671 583 557 z m 420 -17 b 693 85 548 -17 623 22 l 639 169 b 429 78 581 108 511 78 b 222 353 282 78 228 209 l 707 353 l 708 394 b 430 766 708 591 627 766 b 97 376 220 766 97 595 b 420 -17 97 158 201 -17 z "},"ê":{"ha":833,"x_min":0,"x_max":0,"o":"m 487 1086 l 373 1086 l 198 849 l 290 849 l 427 1008 l 565 849 l 662 849 z m 590 443 l 226 443 b 430 671 240 563 296 671 b 590 443 549 671 583 557 z m 420 -17 b 693 85 548 -17 623 22 l 639 169 b 429 78 581 108 511 78 b 222 353 282 78 228 209 l 707 353 l 708 394 b 430 766 708 591 627 766 b 97 376 220 766 97 595 b 420 -17 97 158 201 -17 z "},"ë":{"ha":833,"x_min":0,"x_max":0,"o":"m 217 971 b 224 849 222 931 224 890 b 349 857 265 854 307 857 b 342 978 345 897 342 937 b 217 971 302 974 260 971 z m 512 857 b 635 849 553 857 593 854 b 643 971 635 892 637 932 b 518 978 600 971 558 974 b 512 857 518 936 515 896 z m 590 443 l 226 443 b 430 671 240 563 296 671 b 590 443 549 671 583 557 z m 420 -17 b 693 85 548 -17 623 22 l 639 169 b 429 78 581 108 511 78 b 222 353 282 78 228 209 l 707 353 l 708 394 b 430 766 708 591 627 766 b 97 376 220 766 97 595 b 420 -17 97 158 201 -17 z "},"ì":{"ha":833,"x_min":0,"x_max":0,"o":"m 328 1145 l 168 1145 l 426 849 l 520 849 z m 180 646 l 411 646 l 411 98 l 134 98 l 134 0 l 804 0 l 804 98 l 534 98 l 534 744 l 180 744 z "},"í":{"ha":833,"x_min":0,"x_max":0,"o":"m 425 849 l 521 849 l 759 1145 l 602 1145 z m 180 646 l 411 646 l 411 98 l 134 98 l 134 0 l 804 0 l 804 98 l 534 98 l 534 744 l 180 744 z "},"î":{"ha":833,"x_min":0,"x_max":0,"o":"m 529 1086 l 416 1086 l 240 849 l 333 849 l 470 1008 l 608 849 l 705 849 z m 180 646 l 411 646 l 411 98 l 134 98 l 134 0 l 804 0 l 804 98 l 534 98 l 534 744 l 180 744 z "},"ï":{"ha":833,"x_min":0,"x_max":0,"o":"m 260 971 b 267 849 264 931 267 890 b 392 857 308 854 349 857 b 385 978 387 897 385 937 b 260 971 345 974 303 971 z m 555 857 b 677 849 595 857 636 854 b 686 971 677 892 680 932 b 561 978 642 971 601 974 b 555 857 561 936 558 896 z m 180 646 l 411 646 l 411 98 l 134 98 l 134 0 l 804 0 l 804 98 l 534 98 l 534 744 l 180 744 z "},"ð":{"ha":833,"x_min":0,"x_max":0,"o":"m 846 504 b 809 756 846 599 833 681 l 919 756 l 919 857 l 771 857 b 515 1098 718 964 632 1054 l 456 1036 b 645 857 535 993 602 935 l 491 857 l 491 756 l 688 756 b 715 533 707 688 715 616 b 435 661 662 616 568 661 b 92 329 229 661 92 534 l 92 328 b 462 -17 92 136 231 -17 b 846 504 749 -17 846 218 z m 456 87 b 224 326 315 87 224 186 b 449 557 224 467 306 557 b 705 395 551 557 705 500 b 456 87 705 222 631 87 z "},"ñ":{"ha":833,"x_min":0,"x_max":0,"o":"m 697 1017 l 604 1017 b 549 945 601 980 588 945 b 325 1025 453 945 423 1025 b 166 859 222 1025 168 959 l 259 859 b 321 928 260 899 279 928 b 546 849 416 928 450 849 b 697 1017 646 849 692 922 z m 485 766 b 267 650 372 766 310 709 l 260 744 l 147 744 l 147 0 l 271 0 l 271 496 b 441 671 271 602 348 671 b 593 434 597 671 593 554 l 593 0 l 716 0 l 716 473 b 485 766 716 648 656 766 z "},"ò":{"ha":833,"x_min":0,"x_max":0,"o":"m 270 1145 l 110 1145 l 368 849 l 462 849 z m 415 766 b 80 374 214 766 80 608 b 415 -17 80 157 196 -17 b 753 378 617 -17 753 142 b 415 766 753 599 638 766 z m 205 373 b 415 671 205 518 260 671 b 629 375 575 671 629 522 b 415 78 629 228 574 78 b 205 373 260 78 205 228 z "},"ó":{"ha":833,"x_min":0,"x_max":0,"o":"m 367 849 l 463 849 l 701 1145 l 544 1145 z m 415 766 b 80 374 214 766 80 608 b 415 -17 80 157 196 -17 b 753 378 617 -17 753 142 b 415 766 753 599 638 766 z m 205 373 b 415 671 205 518 260 671 b 629 375 575 671 629 522 b 415 78 629 228 574 78 b 205 373 260 78 205 228 z "},"ô":{"ha":833,"x_min":0,"x_max":0,"o":"m 472 1086 l 358 1086 l 183 849 l 275 849 l 412 1008 l 550 849 l 647 849 z m 415 766 b 80 374 214 766 80 608 b 415 -17 80 157 196 -17 b 753 378 617 -17 753 142 b 415 766 753 599 638 766 z m 205 373 b 415 671 205 518 260 671 b 629 375 575 671 629 522 b 415 78 629 228 574 78 b 205 373 260 78 205 228 z "},"õ":{"ha":833,"x_min":0,"x_max":0,"o":"m 681 1017 l 587 1017 b 532 945 584 980 571 945 b 308 1025 436 945 407 1025 b 150 859 205 1025 152 959 l 242 859 b 305 928 244 899 262 928 b 529 849 399 928 433 849 b 681 1017 629 849 676 922 z m 415 766 b 80 374 214 766 80 608 b 415 -17 80 157 196 -17 b 753 378 617 -17 753 142 b 415 766 753 599 638 766 z m 205 373 b 415 671 205 518 260 671 b 629 375 575 671 629 522 b 415 78 629 228 574 78 b 205 373 260 78 205 228 z "},"ö":{"ha":833,"x_min":0,"x_max":0,"o":"m 202 971 b 210 849 207 931 210 890 b 334 857 250 854 292 857 b 327 978 330 897 327 937 b 202 971 287 974 245 971 z m 497 857 b 620 849 538 857 578 854 b 628 971 620 892 623 932 b 503 978 585 971 543 974 b 497 857 503 936 500 896 z m 415 766 b 80 374 214 766 80 608 b 415 -17 80 157 196 -17 b 753 378 617 -17 753 142 b 415 766 753 599 638 766 z m 205 373 b 415 671 205 518 260 671 b 629 375 575 671 629 522 b 415 78 629 228 574 78 b 205 373 260 78 205 228 z "},"÷":{"ha":833,"x_min":0,"x_max":0,"o":"m 103 459 l 103 357 l 889 357 l 889 459 z m 420 15 l 582 15 l 582 170 l 420 170 z m 420 643 l 582 643 l 582 797 l 420 797 z "},"ø":{"ha":833,"x_min":0,"x_max":0,"o":"m 218 -192 l 700 916 l 624 940 l 142 -164 z m 417 766 b 80 374 216 766 80 608 b 412 -17 80 157 193 -17 b 753 378 614 -17 753 142 b 417 766 753 599 640 766 z m 204 373 b 416 663 204 513 261 663 b 629 375 576 663 629 517 b 416 87 629 232 575 87 b 204 373 261 87 204 233 z "},"ù":{"ha":833,"x_min":0,"x_max":0,"o":"m 272 1145 l 112 1145 l 369 849 l 464 849 z m 416 -17 b 704 274 597 -17 704 94 l 704 744 l 581 744 l 581 263 b 416 78 581 157 530 78 b 252 263 303 78 252 157 l 252 744 l 129 744 l 129 274 b 416 -17 129 94 236 -17 z "},"ú":{"ha":833,"x_min":0,"x_max":0,"o":"m 368 849 l 465 849 l 703 1145 l 545 1145 z m 416 -17 b 704 274 597 -17 704 94 l 704 744 l 581 744 l 581 263 b 416 78 581 157 530 78 b 252 263 303 78 252 157 l 252 744 l 129 744 l 129 274 b 416 -17 129 94 236 -17 z "},"û":{"ha":833,"x_min":0,"x_max":0,"o":"m 473 1086 l 360 1086 l 184 849 l 276 849 l 413 1008 l 552 849 l 649 849 z m 416 -17 b 704 274 597 -17 704 94 l 704 744 l 581 744 l 581 263 b 416 78 581 157 530 78 b 252 263 303 78 252 157 l 252 744 l 129 744 l 129 274 b 416 -17 129 94 236 -17 z "},"ü":{"ha":833,"x_min":0,"x_max":0,"o":"m 203 971 b 211 849 208 931 211 890 b 336 857 252 854 293 857 b 328 978 331 897 328 937 b 203 971 288 974 247 971 z m 498 857 b 621 849 539 857 580 854 b 629 971 621 892 624 932 b 505 978 586 971 545 974 b 498 857 505 936 502 896 z m 416 -17 b 704 274 597 -17 704 94 l 704 744 l 581 744 l 581 263 b 416 78 581 157 530 78 b 252 263 303 78 252 157 l 252 744 l 129 744 l 129 274 b 416 -17 129 94 236 -17 z "},"ý":{"ha":833,"x_min":0,"x_max":0,"o":"m 385 849 l 481 849 l 720 1145 l 562 1145 z m 442 139 l 212 744 l 64 744 b 372 16 64 744 161 503 b 109 -181 364 -140 252 -166 l 109 -287 b 495 -39 302 -267 446 -212 b 511 12 500 -23 504 -3 l 511 11 b 803 744 572 172 803 744 l 667 744 z "},"þ":{"ha":833,"x_min":0,"x_max":0,"o":"m 232 649 l 232 1072 l 107 1072 l 107 -315 l 231 -315 l 231 99 b 494 -17 289 30 375 -17 b 844 388 698 -17 844 146 l 845 388 b 490 774 845 616 721 774 b 232 649 370 774 288 722 z m 711 383 b 471 80 711 218 638 80 b 231 363 309 80 231 203 b 474 675 231 541 294 675 b 711 383 646 675 711 553 z "},"ÿ":{"ha":833,"x_min":0,"x_max":0,"o":"m 220 971 b 228 849 225 931 228 890 b 353 857 269 854 310 857 b 345 978 348 897 345 937 b 220 971 305 974 264 971 z m 515 857 b 638 849 556 857 597 854 b 646 971 638 892 641 932 b 522 978 603 971 562 974 b 515 857 522 936 519 896 z m 442 139 l 212 744 l 64 744 b 372 16 64 744 161 503 b 109 -181 364 -140 252 -166 l 109 -287 b 495 -39 302 -267 446 -212 b 511 12 500 -23 504 -3 l 511 11 b 803 744 572 172 803 744 l 667 744 z "},"Ā":{"ha":833,"x_min":0,"x_max":0,"o":"m 95 1111 l 738 1111 l 738 1206 l 95 1206 z m 494 1011 l 339 1011 l 27 0 l 165 0 l 267 321 l 565 321 l 667 0 l 806 0 z m 294 431 l 418 831 l 539 431 z "},"ā":{"ha":833,"x_min":0,"x_max":0,"o":"m 123 849 l 765 849 l 765 944 l 123 944 z m 363 -17 b 593 57 444 -17 535 22 l 610 0 l 718 0 l 718 536 b 444 766 718 701 599 766 b 155 715 335 766 237 750 l 184 620 b 431 677 248 652 337 677 b 594 513 534 677 594 626 l 594 395 l 495 395 b 120 190 297 395 120 374 b 363 -17 120 55 229 -17 z m 368 73 b 241 196 289 73 241 120 b 493 317 241 312 385 317 l 594 317 l 594 127 b 368 73 530 102 450 73 z "},"Ă":{"ha":833,"x_min":0,"x_max":0,"o":"m 270 1284 l 204 1284 b 418 1111 215 1166 291 1111 b 629 1284 542 1111 621 1169 l 563 1284 b 412 1189 547 1223 489 1189 b 270 1284 335 1189 282 1219 z m 494 1011 l 339 1011 l 27 0 l 165 0 l 267 321 l 565 321 l 667 0 l 806 0 z m 294 431 l 418 831 l 539 431 z "},"ă":{"ha":833,"x_min":0,"x_max":0,"o":"m 298 1023 l 232 1023 b 446 849 242 905 318 849 b 657 1023 570 849 649 907 l 591 1023 b 440 927 575 961 517 927 b 298 1023 362 927 310 957 z m 363 -17 b 593 57 444 -17 535 22 l 610 0 l 718 0 l 718 536 b 444 766 718 701 599 766 b 155 715 335 766 237 750 l 184 620 b 431 677 248 652 337 677 b 594 513 534 677 594 626 l 594 395 l 495 395 b 120 190 297 395 120 374 b 363 -17 120 55 229 -17 z m 368 73 b 241 196 289 73 241 120 b 493 317 241 312 385 317 l 594 317 l 594 127 b 368 73 530 102 450 73 z "},"Ą":{"ha":833,"x_min":0,"x_max":0,"o":"m 255 -164 b 440 -286 255 -260 344 -286 b 550 -265 478 -286 516 -279 l 550 -183 b 448 -206 520 -194 487 -206 b 360 -143 402 -206 360 -189 b 513 1 360 -80 454 -33 l 417 10 b 255 -164 350 -21 255 -69 z m 494 1011 l 339 1011 l 27 0 l 165 0 l 267 321 l 565 321 l 667 0 l 806 0 z m 294 431 l 418 831 l 539 431 z "},"ą":{"ha":833,"x_min":0,"x_max":0,"o":"m 446 -181 b 631 -303 446 -277 535 -303 b 741 -282 669 -303 707 -296 l 741 -200 b 639 -223 711 -211 677 -223 b 551 -160 593 -223 551 -206 b 704 -16 551 -97 645 -50 l 608 -7 b 446 -181 541 -38 446 -86 z m 363 -17 b 593 57 444 -17 535 22 l 610 0 l 718 0 l 718 536 b 444 766 718 701 599 766 b 155 715 335 766 237 750 l 184 620 b 431 677 248 652 337 677 b 594 513 534 677 594 626 l 594 395 l 495 395 b 120 190 297 395 120 374 b 363 -17 120 55 229 -17 z m 368 73 b 241 196 289 73 241 120 b 493 317 241 312 385 317 l 594 317 l 594 127 b 368 73 530 102 450 73 z "},"Ć":{"ha":833,"x_min":0,"x_max":0,"o":"m 453 1111 l 549 1111 l 787 1407 l 630 1407 z m 786 942 b 501 1028 718 998 621 1028 b 87 509 251 1028 87 816 b 501 -17 87 215 232 -17 b 787 70 621 -17 718 14 l 740 165 b 514 88 688 125 610 88 b 220 507 315 88 220 275 b 515 924 220 728 304 924 b 739 853 610 924 684 893 z "},"ć":{"ha":833,"x_min":0,"x_max":0,"o":"m 413 849 l 509 849 l 747 1145 l 590 1145 z m 224 378 b 469 671 224 554 299 671 b 677 592 554 671 623 640 l 724 692 b 461 766 657 740 568 766 b 80 377 224 766 80 612 b 461 -17 80 136 219 -17 b 724 58 572 -17 659 9 l 677 142 b 471 78 624 104 555 78 b 224 378 299 78 224 198 z "},"Č":{"ha":833,"x_min":0,"x_max":0,"o":"m 370 1347 l 260 1347 l 445 1111 l 557 1111 l 742 1347 l 626 1347 l 497 1187 z m 786 942 b 501 1028 718 998 621 1028 b 87 509 251 1028 87 816 b 501 -17 87 215 232 -17 b 787 70 621 -17 718 14 l 740 165 b 514 88 688 125 610 88 b 220 507 315 88 220 275 b 515 924 220 728 304 924 b 739 853 610 924 684 893 z "},"č":{"ha":833,"x_min":0,"x_max":0,"o":"m 330 1085 l 220 1085 l 405 849 l 517 849 l 702 1085 l 586 1085 l 457 926 z m 224 378 b 469 671 224 554 299 671 b 677 592 554 671 623 640 l 724 692 b 461 766 657 740 568 766 b 80 377 224 766 80 612 b 461 -17 80 136 219 -17 b 724 58 572 -17 659 9 l 677 142 b 471 78 624 104 555 78 b 224 378 299 78 224 198 z "},"Ē":{"ha":833,"x_min":0,"x_max":0,"o":"m 128 1111 l 770 1111 l 770 1206 l 128 1206 z m 274 464 l 718 464 l 718 572 l 274 572 l 274 912 l 741 912 l 751 1011 l 147 1011 l 147 0 l 764 0 l 774 99 l 274 99 z "},"ē":{"ha":833,"x_min":0,"x_max":0,"o":"m 109 849 l 751 849 l 751 944 l 109 944 z m 590 443 l 226 443 b 430 671 240 563 296 671 b 590 443 549 671 583 557 z m 420 -17 b 693 85 548 -17 623 22 l 639 169 b 429 78 581 108 511 78 b 222 353 282 78 228 209 l 707 353 l 708 394 b 430 766 708 591 627 766 b 97 376 220 766 97 595 b 420 -17 97 158 201 -17 z "},"Ę":{"ha":833,"x_min":0,"x_max":0,"o":"m 293 -164 b 478 -286 293 -260 383 -286 b 589 -265 517 -286 554 -279 l 589 -183 b 487 -206 559 -194 525 -206 b 398 -143 440 -206 398 -189 b 552 1 398 -80 493 -33 l 455 10 b 293 -164 389 -21 293 -69 z m 274 464 l 718 464 l 718 572 l 274 572 l 274 912 l 741 912 l 751 1011 l 147 1011 l 147 0 l 764 0 l 774 99 l 274 99 z "},"ę":{"ha":833,"x_min":0,"x_max":0,"o":"m 210 -181 b 395 -303 210 -277 299 -303 b 505 -282 433 -303 471 -296 l 505 -200 b 403 -223 475 -211 441 -223 b 315 -160 357 -223 315 -206 b 468 -16 315 -97 409 -50 l 372 -7 b 210 -181 305 -38 210 -86 z m 590 443 l 226 443 b 430 671 240 563 296 671 b 590 443 549 671 583 557 z m 420 -17 b 693 85 548 -17 623 22 l 639 169 b 429 78 581 108 511 78 b 222 353 282 78 228 209 l 707 353 l 708 394 b 430 766 708 591 627 766 b 97 376 220 766 97 595 b 420 -17 97 158 201 -17 z "},"Ģ":{"ha":833,"x_min":0,"x_max":0,"o":""},"ģ":{"ha":833,"x_min":0,"x_max":0,"o":"m 401 657 b 604 377 562 657 604 524 b 396 110 604 245 555 110 b 199 373 253 110 199 244 b 401 657 199 527 242 657 z m 604 142 l 604 93 b 593 -26 604 46 601 6 b 210 -186 556 -186 405 -186 l 210 -299 b 728 103 565 -299 728 -215 l 728 302 b 734 744 728 454 728 596 l 608 744 l 604 643 b 388 766 557 720 486 766 b 75 377 176 766 75 597 b 385 0 75 172 177 0 b 604 142 490 0 576 70 z m 291 847 l 432 847 l 513 1188 l 414 1188 z "},"ħ":{"ha":833,"x_min":0,"x_max":0,"o":"m 669 437 l 669 0 l 812 0 l 812 449 b 535 769 812 643 731 769 b 271 645 412 769 327 720 l 271 871 l 433 871 l 433 970 l 271 970 l 271 1095 l 127 1095 l 127 970 l 3 970 l 3 871 l 127 871 l 127 0 l 271 0 l 271 492 b 511 658 271 559 398 658 b 669 437 637 658 669 562 z "},"Ĩ":{"ha":833,"x_min":0,"x_max":0,"o":"m 682 1278 l 589 1278 b 534 1207 586 1242 573 1207 b 310 1286 438 1207 408 1286 b 151 1120 207 1286 153 1221 l 244 1120 b 307 1190 245 1160 264 1190 b 531 1111 401 1190 435 1111 b 682 1278 631 1111 677 1184 z m 132 912 l 351 912 l 351 99 l 132 99 l 132 0 l 702 0 l 702 99 l 477 99 l 477 912 l 702 912 l 702 1011 l 132 1011 z "},"ĩ":{"ha":833,"x_min":0,"x_max":0,"o":"m 738 1017 l 645 1017 b 590 945 642 980 629 945 b 366 1025 494 945 464 1025 b 207 859 263 1025 209 959 l 300 859 b 362 928 301 899 320 928 b 587 849 457 928 491 849 b 738 1017 687 849 733 922 z m 180 646 l 411 646 l 411 98 l 134 98 l 134 0 l 804 0 l 804 98 l 534 98 l 534 744 l 180 744 z "},"Ī":{"ha":833,"x_min":0,"x_max":0,"o":"m 96 1111 l 738 1111 l 738 1206 l 96 1206 z m 132 912 l 351 912 l 351 99 l 132 99 l 132 0 l 702 0 l 702 99 l 477 99 l 477 912 l 702 912 l 702 1011 l 132 1011 z "},"ī":{"ha":833,"x_min":0,"x_max":0,"o":"m 152 849 l 794 849 l 794 944 l 152 944 z m 180 646 l 411 646 l 411 98 l 134 98 l 134 0 l 804 0 l 804 98 l 534 98 l 534 744 l 180 744 z "},"Į":{"ha":833,"x_min":0,"x_max":0,"o":"m 207 -164 b 392 -286 207 -260 296 -286 b 502 -265 430 -286 468 -279 l 502 -183 b 400 -206 472 -194 438 -206 b 312 -143 354 -206 312 -189 b 465 1 312 -80 406 -33 l 369 10 b 207 -164 302 -21 207 -69 z m 132 912 l 351 912 l 351 99 l 132 99 l 132 0 l 702 0 l 702 99 l 477 99 l 477 912 l 702 912 l 702 1011 l 132 1011 z "},"į":{"ha":833,"x_min":0,"x_max":0,"o":"m 258 -164 b 444 -286 258 -260 348 -286 b 554 -265 482 -286 519 -279 l 554 -183 b 452 -206 524 -194 490 -206 b 363 -143 406 -206 363 -189 b 517 1 363 -80 458 -33 l 420 10 b 258 -164 354 -21 258 -69 z m 180 649 l 411 649 l 411 95 l 134 95 l 134 0 l 804 0 l 804 95 l 534 95 l 534 744 l 180 744 z m 391 940 b 473 878 391 906 439 878 b 555 940 507 878 555 906 l 555 1007 b 473 1069 555 1041 507 1069 b 391 1007 439 1069 391 1041 z "},"ı":{"ha":833,"x_min":0,"x_max":0,"o":"m 180 646 l 411 646 l 411 98 l 134 98 l 134 0 l 804 0 l 804 98 l 534 98 l 534 744 l 180 744 z "},"Ĳ":{"ha":833,"x_min":0,"x_max":0,"o":"m 132 901 l 351 901 l 351 111 l 132 111 l 132 0 l 702 0 l 702 111 l 477 111 l 477 901 l 702 901 l 702 1011 l 132 1011 z m 926 91 l 926 -18 l 1085 -18 b 1350 300 1290 -18 1350 82 l 1350 901 l 1552 901 l 1552 1011 l 989 1011 l 989 901 l 1223 901 l 1223 265 b 1071 91 1223 144 1190 91 z "},"ĳ":{"ha":833,"x_min":0,"x_max":0,"o":"m 180 646 l 411 646 l 411 98 l 134 98 l 134 0 l 804 0 l 804 98 l 534 98 l 534 744 l 180 744 z m 411 928 l 534 928 l 534 1063 l 411 1063 z m 1112 -105 l 925 -105 l 925 -212 l 1112 -212 b 1378 124 1367 -212 1378 -97 l 1378 744 l 926 744 l 926 646 l 1255 646 l 1255 86 b 1112 -105 1255 -81 1238 -105 z m 1256 929 l 1378 929 l 1378 1064 l 1256 1064 z "},"Ĵ":{"ha":833,"x_min":0,"x_max":0,"o":"m 93 91 l 93 -18 l 252 -18 b 516 300 456 -18 516 82 l 516 901 l 719 901 l 719 1011 l 155 1011 l 155 901 l 389 901 l 389 265 b 237 91 389 144 356 91 z m 463 1362 l 349 1362 l 174 1126 l 266 1126 l 403 1285 l 541 1126 l 638 1126 z "},"ĵ":{"ha":833,"x_min":0,"x_max":0,"o":"m 278 -105 l 92 -105 l 92 -212 l 279 -212 b 545 124 533 -212 545 -97 l 545 744 l 92 744 l 92 646 l 421 646 l 421 86 b 278 -105 421 -81 404 -105 z m 375 1095 l 262 1095 l 86 859 l 178 859 l 315 1018 l 454 859 l 551 859 z "},"ķ":{"ha":833,"x_min":0,"x_max":0,"o":"m 269 439 l 269 1075 l 146 1075 l 146 0 l 269 0 l 269 306 l 345 370 l 615 0 l 770 0 l 433 435 l 764 744 l 601 744 z m 569 -103 l 428 -103 l 347 -444 l 446 -444 z "},"ĸ":{"ha":833,"x_min":0,"x_max":0,"o":"m 270 410 l 270 755 l 146 755 l 146 0 l 269 0 l 269 347 l 652 0 l 817 0 l 391 376 l 789 755 l 620 755 z "},"Ŀ":{"ha":833,"x_min":0,"x_max":0,"o":""},"ŀ":{"ha":833,"x_min":0,"x_max":0,"o":"m 132 972 l 411 972 l 411 98 l 85 98 l 85 0 l 854 0 l 854 98 l 534 98 l 534 1075 l 132 1075 z m 1164 378 l 1327 378 l 1327 532 l 1164 532 z "},"Ł":{"ha":833,"x_min":0,"x_max":0,"o":"m 7 360 l 563 631 l 563 732 l 7 461 z m 285 111 l 285 1011 l 158 1011 l 158 0 l 766 0 l 766 111 z "},"ł":{"ha":833,"x_min":0,"x_max":0,"o":"m 207 360 l 762 631 l 762 732 l 207 461 z m 132 972 l 411 972 l 411 98 l 85 98 l 85 0 l 854 0 l 854 98 l 534 98 l 534 1075 l 132 1075 z "},"Ń":{"ha":833,"x_min":0,"x_max":0,"o":"m 368 1111 l 465 1111 l 703 1407 l 545 1407 z m 731 0 l 731 1011 l 618 1011 l 618 196 l 248 1011 l 102 1011 l 102 0 l 217 0 l 217 818 l 582 0 z "},"ń":{"ha":833,"x_min":0,"x_max":0,"o":"m 384 849 l 480 849 l 718 1145 l 561 1145 z m 485 766 b 267 650 372 766 310 709 l 260 744 l 147 744 l 147 0 l 271 0 l 271 496 b 441 671 271 602 348 671 b 593 434 597 671 593 554 l 593 0 l 716 0 l 716 473 b 485 766 716 648 656 766 z "},"Œ":{"ha":833,"x_min":0,"x_max":0,"o":"m 547 486 l 710 486 l 710 603 l 547 603 l 547 947 l 733 947 l 744 1063 l 366 1063 b 14 535 122 1063 14 821 b 366 0 14 267 100 0 l 757 0 l 768 116 l 547 116 z m 165 536 b 366 942 165 716 192 942 l 395 942 l 395 109 l 366 109 b 165 536 205 109 165 333 z "},"œ":{"ha":833,"x_min":0,"x_max":0,"o":"m 172 373 b 288 663 172 513 201 663 b 399 379 368 663 399 522 b 288 87 399 229 371 87 b 172 373 201 87 172 233 z m 779 66 l 724 151 b 602 87 694 116 657 87 b 497 353 534 87 503 205 l 793 353 l 793 394 b 604 766 793 597 728 766 b 448 645 538 766 484 722 b 290 766 413 720 360 766 b 47 374 146 766 47 608 b 284 -17 47 157 130 -17 b 444 106 351 -17 406 28 b 593 -17 475 30 525 -17 b 779 66 677 -17 732 15 z m 696 443 l 501 443 b 604 663 507 559 537 663 b 696 443 669 663 692 557 z "},"Ŕ":{"ha":833,"x_min":0,"x_max":0,"o":"m 176 1111 l 273 1111 l 511 1407 l 353 1407 z m 756 741 b 323 1011 756 976 557 1011 l 126 1011 l 126 0 l 253 0 l 253 449 l 312 449 b 414 443 349 449 382 448 b 652 -1 524 326 580 155 l 799 0 b 532 479 724 165 657 362 b 756 741 660 508 756 592 z m 351 559 l 253 559 l 253 912 l 382 912 b 615 740 509 912 615 867 b 351 559 615 597 494 559 z "},"Ŗ":{"ha":833,"x_min":0,"x_max":0,"o":"m 762 -83 l 621 -83 l 541 -424 l 640 -424 z m 756 741 b 323 1011 756 976 557 1011 l 126 1011 l 126 0 l 253 0 l 253 449 l 312 449 b 414 443 349 449 382 448 b 652 -1 524 326 580 155 l 799 0 b 532 479 724 165 657 362 b 756 741 660 508 756 592 z m 351 559 l 253 559 l 253 912 l 382 912 b 615 740 509 912 615 867 b 351 559 615 597 494 559 z "},"ŗ":{"ha":833,"x_min":0,"x_max":0,"o":"m 514 -83 l 373 -83 l 293 -423 l 392 -423 z m 696 652 l 806 652 l 806 766 l 713 766 b 437 606 591 766 498 713 l 427 744 l 174 744 l 174 649 l 326 649 l 326 95 l 95 95 l 95 0 l 713 0 l 713 95 l 449 95 l 449 414 b 696 652 449 578 544 652 z "},"Ř":{"ha":833,"x_min":0,"x_max":0,"o":"m 93 1347 l -16 1347 l 168 1111 l 280 1111 l 465 1347 l 349 1347 l 220 1187 z m 756 741 b 323 1011 756 976 557 1011 l 126 1011 l 126 0 l 253 0 l 253 449 l 312 449 b 414 443 349 449 382 448 b 652 -1 524 326 580 155 l 799 0 b 532 479 724 165 657 362 b 756 741 660 508 756 592 z m 351 559 l 253 559 l 253 912 l 382 912 b 615 740 509 912 615 867 b 351 559 615 597 494 559 z "},"ř":{"ha":833,"x_min":0,"x_max":0,"o":"m 319 1085 l 210 1085 l 394 849 l 506 849 l 691 1085 l 575 1085 l 447 926 z m 696 652 l 806 652 l 806 766 l 713 766 b 437 606 591 766 498 713 l 427 744 l 174 744 l 174 649 l 326 649 l 326 95 l 95 95 l 95 0 l 713 0 l 713 95 l 449 95 l 449 414 b 696 652 449 578 544 652 z "},"Ś":{"ha":833,"x_min":0,"x_max":0,"o":"m 361 1112 l 458 1112 l 696 1408 l 538 1408 z m 144 177 l 96 64 b 399 -17 175 11 277 -17 b 715 281 590 -17 715 83 b 479 565 715 446 595 513 b 242 760 391 604 242 636 b 416 924 242 863 310 924 b 629 856 502 924 576 897 l 676 954 b 410 1029 612 1004 523 1029 b 102 762 235 1029 102 936 b 336 487 102 596 220 536 b 572 274 434 446 572 410 b 402 88 572 161 512 88 b 144 177 296 88 207 125 z "},"ś":{"ha":833,"x_min":0,"x_max":0,"o":"m 378 849 l 474 849 l 712 1145 l 555 1145 z m 421 92 b 177 157 322 92 239 113 l 138 52 b 431 -17 206 2 315 -17 b 743 216 595 -17 743 52 b 516 427 743 358 629 397 b 290 559 435 449 290 460 b 432 671 290 643 359 671 b 660 620 515 671 597 655 l 699 720 b 426 766 623 755 532 766 b 146 555 281 766 146 701 b 373 336 146 412 258 366 b 600 206 452 316 600 303 b 421 92 600 112 515 92 z "},"Š":{"ha":833,"x_min":0,"x_max":0,"o":"m 278 1348 l 169 1348 l 353 1112 l 465 1112 l 650 1348 l 534 1348 l 406 1188 z m 144 177 l 96 64 b 399 -17 175 11 277 -17 b 715 281 590 -17 715 83 b 479 565 715 446 595 513 b 242 760 391 604 242 636 b 416 924 242 863 310 924 b 629 856 502 924 576 897 l 676 954 b 410 1029 612 1004 523 1029 b 102 762 235 1029 102 936 b 336 487 102 596 220 536 b 572 274 434 446 572 410 b 402 88 572 161 512 88 b 144 177 296 88 207 125 z "},"š":{"ha":833,"x_min":0,"x_max":0,"o":"m 294 1085 l 185 1085 l 370 849 l 481 849 l 667 1085 l 551 1085 l 422 926 z m 421 92 b 177 157 322 92 239 113 l 138 52 b 431 -17 206 2 315 -17 b 743 216 595 -17 743 52 b 516 427 743 358 629 397 b 290 559 435 449 290 460 b 432 671 290 643 359 671 b 660 620 515 671 597 655 l 699 720 b 426 766 623 755 532 766 b 146 555 281 766 146 701 b 373 336 146 412 258 366 b 600 206 452 316 600 303 b 421 92 600 112 515 92 z "},"Ţ":{"ha":833,"x_min":0,"x_max":0,"o":"m 488 -180 b 402 -233 488 -223 445 -233 b 289 -215 362 -233 323 -223 l 282 -277 b 411 -293 322 -286 364 -293 b 594 -179 502 -293 594 -271 b 444 -69 594 -97 526 -69 l 438 -69 l 451 10 l 378 10 l 354 -130 b 405 -127 373 -129 386 -127 b 488 -180 448 -127 488 -138 z m 813 1011 l 20 1011 l 20 912 l 351 912 l 351 0 l 478 0 l 478 912 l 813 912 z "},"ţ":{"ha":833,"x_min":0,"x_max":0,"o":"m 814 -180 b 728 -233 814 -223 771 -233 b 614 -215 688 -233 649 -223 l 608 -277 b 736 -293 648 -286 690 -293 b 920 -179 828 -293 920 -271 b 770 -69 920 -97 852 -69 l 764 -69 l 777 10 l 704 10 l 680 -130 b 731 -127 699 -129 712 -127 b 814 -180 774 -127 814 -138 z m 462 649 l 794 649 l 794 744 l 462 744 l 462 1037 l 338 1000 l 338 744 l 142 744 l 142 649 l 338 649 l 338 338 b 680 0 338 87 413 0 l 802 0 l 802 95 l 675 95 b 462 300 525 95 462 142 z "},"Ÿ":{"ha":833,"x_min":0,"x_max":0,"o":"m 204 1233 b 211 1111 209 1193 211 1152 b 336 1118 252 1116 293 1118 b 329 1240 331 1158 329 1198 b 204 1233 289 1236 247 1233 z m 499 1118 b 622 1111 539 1118 580 1116 b 630 1233 622 1154 624 1194 b 505 1240 586 1233 545 1236 b 499 1118 505 1198 502 1158 z m 485 0 l 485 402 l 800 1011 l 644 1011 l 414 534 l 186 1011 l 33 1011 l 341 402 l 341 0 z "},"Ź":{"ha":833,"x_min":0,"x_max":0,"o":"m 339 1111 l 435 1111 l 673 1407 l 516 1407 z m 233 99 l 681 925 l 681 1011 l 93 1011 l 93 912 l 508 912 l 69 97 l 69 0 l 675 0 l 675 99 z "},"ź":{"ha":833,"x_min":0,"x_max":0,"o":"m 356 849 l 453 849 l 691 1145 l 533 1145 z m 144 744 l 144 649 l 510 649 l 131 96 l 131 0 l 690 0 l 690 95 l 273 95 l 665 650 l 665 744 z "},"Ż":{"ha":833,"x_min":0,"x_max":0,"o":"m 327 1231 l 327 1111 l 447 1111 l 447 1231 z m 233 99 l 681 925 l 681 1011 l 93 1011 l 93 912 l 508 912 l 69 97 l 69 0 l 675 0 l 675 99 z "},"ż":{"ha":833,"x_min":0,"x_max":0,"o":"m 345 969 l 345 849 l 465 849 l 465 969 z m 144 744 l 144 649 l 510 649 l 131 96 l 131 0 l 690 0 l 690 95 l 273 95 l 665 650 l 665 744 z "},"Ž":{"ha":833,"x_min":0,"x_max":0,"o":"m 255 1347 l 146 1347 l 331 1111 l 443 1111 l 628 1347 l 512 1347 l 383 1187 z m 233 99 l 681 925 l 681 1011 l 93 1011 l 93 912 l 508 912 l 69 97 l 69 0 l 675 0 l 675 99 z "},"ž":{"ha":833,"x_min":0,"x_max":0,"o":"m 273 1085 l 164 1085 l 348 849 l 460 849 l 645 1085 l 529 1085 l 400 926 z m 144 744 l 144 649 l 510 649 l 131 96 l 131 0 l 690 0 l 690 95 l 273 95 l 665 650 l 665 744 z "},"ƒ":{"ha":833,"x_min":0,"x_max":0,"o":"m 840 937 l 846 1044 b 739 1057 813 1052 779 1057 b 474 694 522 1057 500 885 l 347 694 l 339 591 l 456 591 b 345 25 420 404 393 201 b 215 -142 324 -49 304 -142 b 155 -132 195 -142 174 -139 l 146 -233 b 241 -244 174 -241 206 -244 b 489 88 412 -244 458 -65 l 585 591 l 745 591 l 751 694 l 602 694 b 762 952 624 819 616 952 b 840 937 792 952 817 945 z "},"Ȁ":{"ha":833,"x_min":0,"x_max":0,"o":"m 406 1339 l 276 1339 l 488 1111 l 575 1111 z m 175 1339 l 46 1339 l 258 1111 l 346 1111 z m 494 1011 l 339 1011 l 27 0 l 165 0 l 267 321 l 565 321 l 667 0 l 806 0 z m 294 431 l 418 831 l 539 431 z "},"ȁ":{"ha":833,"x_min":0,"x_max":0,"o":"m 434 1078 l 304 1078 l 516 849 l 603 849 z m 202 1078 l 74 1078 l 286 849 l 374 849 z m 363 -17 b 593 57 444 -17 535 22 l 610 0 l 718 0 l 718 536 b 444 766 718 701 599 766 b 155 715 335 766 237 750 l 184 620 b 431 677 248 652 337 677 b 594 513 534 677 594 626 l 594 395 l 495 395 b 120 190 297 395 120 374 b 363 -17 120 55 229 -17 z m 368 73 b 241 196 289 73 241 120 b 493 317 241 312 385 317 l 594 317 l 594 127 b 368 73 530 102 450 73 z "},"Ȃ":{"ha":833,"x_min":0,"x_max":0,"o":"m 563 1111 l 629 1111 b 418 1284 621 1225 541 1284 b 204 1111 291 1284 215 1229 l 271 1111 b 412 1205 283 1175 337 1205 b 563 1111 489 1205 547 1173 z m 494 1011 l 339 1011 l 27 0 l 165 0 l 267 321 l 565 321 l 667 0 l 806 0 z m 294 431 l 418 831 l 539 431 z "},"ȃ":{"ha":833,"x_min":0,"x_max":0,"o":"m 591 849 l 656 849 b 446 1023 648 963 568 1023 b 232 849 319 1023 243 967 l 298 849 b 440 943 311 913 365 943 b 591 849 517 943 575 911 z m 363 -17 b 593 57 444 -17 535 22 l 610 0 l 718 0 l 718 536 b 444 766 718 701 599 766 b 155 715 335 766 237 750 l 184 620 b 431 677 248 652 337 677 b 594 513 534 677 594 626 l 594 395 l 495 395 b 120 190 297 395 120 374 b 363 -17 120 55 229 -17 z m 368 73 b 241 196 289 73 241 120 b 493 317 241 312 385 317 l 594 317 l 594 127 b 368 73 530 102 450 73 z "},"Ȅ":{"ha":833,"x_min":0,"x_max":0,"o":"m 439 1339 l 309 1339 l 521 1111 l 608 1111 z m 208 1339 l 79 1339 l 291 1111 l 379 1111 z m 274 464 l 718 464 l 718 572 l 274 572 l 274 912 l 741 912 l 751 1011 l 147 1011 l 147 0 l 764 0 l 774 99 l 274 99 z "},"ȅ":{"ha":833,"x_min":0,"x_max":0,"o":"m 419 1078 l 290 1078 l 502 849 l 588 849 z m 188 1078 l 59 1078 l 272 849 l 360 849 z m 590 443 l 226 443 b 430 671 240 563 296 671 b 590 443 549 671 583 557 z m 420 -17 b 693 85 548 -17 623 22 l 639 169 b 429 78 581 108 511 78 b 222 353 282 78 228 209 l 707 353 l 708 394 b 430 766 708 591 627 766 b 97 376 220 766 97 595 b 420 -17 97 158 201 -17 z "},"Ȇ":{"ha":833,"x_min":0,"x_max":0,"o":"m 596 1111 l 662 1111 b 451 1284 653 1225 573 1284 b 237 1111 324 1284 248 1229 l 303 1111 b 445 1205 316 1175 370 1205 b 596 1111 522 1205 580 1173 z m 274 464 l 718 464 l 718 572 l 274 572 l 274 912 l 741 912 l 751 1011 l 147 1011 l 147 0 l 764 0 l 774 99 l 274 99 z "},"ȇ":{"ha":833,"x_min":0,"x_max":0,"o":"m 576 849 l 642 849 b 432 1023 634 963 554 1023 b 218 849 304 1023 229 967 l 284 849 b 426 943 296 913 351 943 b 576 849 503 943 561 911 z m 590 443 l 226 443 b 430 671 240 563 296 671 b 590 443 549 671 583 557 z m 420 -17 b 693 85 548 -17 623 22 l 639 169 b 429 78 581 108 511 78 b 222 353 282 78 228 209 l 707 353 l 708 394 b 430 766 708 591 627 766 b 97 376 220 766 97 595 b 420 -17 97 158 201 -17 z "},"Ȉ":{"ha":833,"x_min":0,"x_max":0,"o":"m 406 1339 l 277 1339 l 488 1111 l 575 1111 z m 175 1339 l 46 1339 l 258 1111 l 347 1111 z m 132 912 l 351 912 l 351 99 l 132 99 l 132 0 l 702 0 l 702 99 l 477 99 l 477 912 l 702 912 l 702 1011 l 132 1011 z "},"ȉ":{"ha":833,"x_min":0,"x_max":0,"o":"m 462 1078 l 333 1078 l 544 849 l 631 849 z m 231 1078 l 102 1078 l 314 849 l 402 849 z m 180 646 l 411 646 l 411 98 l 134 98 l 134 0 l 804 0 l 804 98 l 534 98 l 534 744 l 180 744 z "},"Ȋ":{"ha":833,"x_min":0,"x_max":0,"o":"m 563 1111 l 629 1111 b 419 1284 621 1225 541 1284 b 204 1111 291 1284 215 1229 l 271 1111 b 413 1205 283 1175 337 1205 b 563 1111 489 1205 548 1173 z m 132 912 l 351 912 l 351 99 l 132 99 l 132 0 l 702 0 l 702 99 l 477 99 l 477 912 l 702 912 l 702 1011 l 132 1011 z "},"ȋ":{"ha":833,"x_min":0,"x_max":0,"o":"m 619 849 l 685 849 b 475 1023 677 963 597 1023 b 260 849 347 1023 271 967 l 327 849 b 469 943 339 913 393 943 b 619 849 545 943 604 911 z m 180 646 l 411 646 l 411 98 l 134 98 l 134 0 l 804 0 l 804 98 l 534 98 l 534 744 l 180 744 z "},"Ȍ":{"ha":833,"x_min":0,"x_max":0,"o":"m 406 1339 l 276 1339 l 488 1111 l 575 1111 z m 175 1339 l 46 1339 l 258 1111 l 346 1111 z m 416 -17 b 749 507 646 -17 749 229 b 416 1028 749 762 669 1028 b 83 507 164 1028 83 762 b 416 -17 83 229 186 -17 z m 416 924 b 616 506 550 924 616 740 b 416 88 616 272 549 88 b 216 506 283 88 216 272 b 416 924 216 740 283 924 z "},"ȍ":{"ha":833,"x_min":0,"x_max":0,"o":"m 405 1078 l 275 1078 l 487 849 l 573 849 z m 173 1078 l 44 1078 l 257 849 l 345 849 z m 415 766 b 80 374 214 766 80 608 b 415 -17 80 157 196 -17 b 753 378 617 -17 753 142 b 415 766 753 599 638 766 z m 205 373 b 415 671 205 518 260 671 b 629 375 575 671 629 522 b 415 78 629 228 574 78 b 205 373 260 78 205 228 z "},"Ȏ":{"ha":833,"x_min":0,"x_max":0,"o":"m 563 1111 l 629 1111 b 418 1284 621 1225 541 1284 b 204 1111 291 1284 215 1229 l 271 1111 b 412 1205 283 1175 337 1205 b 563 1111 489 1205 547 1173 z m 416 -17 b 749 507 646 -17 749 229 b 416 1028 749 762 669 1028 b 83 507 164 1028 83 762 b 416 -17 83 229 186 -17 z m 416 924 b 616 506 550 924 616 740 b 416 88 616 272 549 88 b 216 506 283 88 216 272 b 416 924 216 740 283 924 z "},"ȏ":{"ha":833,"x_min":0,"x_max":0,"o":"m 562 849 l 627 849 b 417 1023 619 963 539 1023 b 203 849 290 1023 214 967 l 269 849 b 411 943 281 913 336 943 b 562 849 488 943 546 911 z m 415 766 b 80 374 214 766 80 608 b 415 -17 80 157 196 -17 b 753 378 617 -17 753 142 b 415 766 753 599 638 766 z m 205 373 b 415 671 205 518 260 671 b 629 375 575 671 629 522 b 415 78 629 228 574 78 b 205 373 260 78 205 228 z "},"Ȑ":{"ha":833,"x_min":0,"x_max":0,"o":"m 214 1339 l 84 1339 l 296 1111 l 383 1111 z m -17 1339 l -146 1339 l 66 1111 l 154 1111 z m 756 741 b 323 1011 756 976 557 1011 l 126 1011 l 126 0 l 253 0 l 253 449 l 312 449 b 414 443 349 449 382 448 b 652 -1 524 326 580 155 l 799 0 b 532 479 724 165 657 362 b 756 741 660 508 756 592 z m 351 559 l 253 559 l 253 912 l 382 912 b 615 740 509 912 615 867 b 351 559 615 597 494 559 z "},"ȑ":{"ha":833,"x_min":0,"x_max":0,"o":"m 440 1078 l 311 1078 l 522 849 l 609 849 z m 209 1078 l 80 1078 l 292 849 l 380 849 z m 696 652 l 806 652 l 806 766 l 713 766 b 437 606 591 766 498 713 l 427 744 l 174 744 l 174 649 l 326 649 l 326 95 l 95 95 l 95 0 l 713 0 l 713 95 l 449 95 l 449 414 b 696 652 449 578 544 652 z "},"Ȓ":{"ha":833,"x_min":0,"x_max":0,"o":"m 371 1111 l 437 1111 b 227 1284 429 1225 349 1284 b 12 1111 99 1284 23 1229 l 79 1111 b 220 1205 91 1175 145 1205 b 371 1111 297 1205 355 1173 z m 756 741 b 323 1011 756 976 557 1011 l 126 1011 l 126 0 l 253 0 l 253 449 l 312 449 b 414 443 349 449 382 448 b 652 -1 524 326 580 155 l 799 0 b 532 479 724 165 657 362 b 756 741 660 508 756 592 z m 351 559 l 253 559 l 253 912 l 382 912 b 615 740 509 912 615 867 b 351 559 615 597 494 559 z "},"ȓ":{"ha":833,"x_min":0,"x_max":0,"o":"m 597 849 l 663 849 b 453 1023 655 963 575 1023 b 238 849 325 1023 249 967 l 305 849 b 447 943 317 913 371 943 b 597 849 523 943 582 911 z m 696 652 l 806 652 l 806 766 l 713 766 b 437 606 591 766 498 713 l 427 744 l 174 744 l 174 649 l 326 649 l 326 95 l 95 95 l 95 0 l 713 0 l 713 95 l 449 95 l 449 414 b 696 652 449 578 544 652 z "},"Ȕ":{"ha":833,"x_min":0,"x_max":0,"o":"m 406 1339 l 276 1339 l 488 1111 l 575 1111 z m 175 1339 l 46 1339 l 258 1111 l 346 1111 z m 416 -17 b 745 368 649 -17 745 127 l 745 1011 l 618 1011 l 618 372 b 416 88 618 211 579 88 b 214 372 254 88 214 211 l 214 1011 l 87 1011 l 87 368 b 416 -17 87 127 184 -17 z "},"ȕ":{"ha":833,"x_min":0,"x_max":0,"o":"m 406 1078 l 276 1078 l 488 849 l 575 849 z m 175 1078 l 46 1078 l 258 849 l 346 849 z m 416 -17 b 704 274 597 -17 704 94 l 704 744 l 581 744 l 581 263 b 416 78 581 157 530 78 b 252 263 303 78 252 157 l 252 744 l 129 744 l 129 274 b 416 -17 129 94 236 -17 z "},"Ȗ":{"ha":833,"x_min":0,"x_max":0,"o":"m 563 1111 l 629 1111 b 418 1284 621 1225 541 1284 b 204 1111 291 1284 215 1229 l 271 1111 b 412 1205 283 1175 337 1205 b 563 1111 489 1205 547 1173 z m 416 -17 b 745 368 649 -17 745 127 l 745 1011 l 618 1011 l 618 372 b 416 88 618 211 579 88 b 214 372 254 88 214 211 l 214 1011 l 87 1011 l 87 368 b 416 -17 87 127 184 -17 z "},"ȗ":{"ha":833,"x_min":0,"x_max":0,"o":"m 563 849 l 629 849 b 418 1023 621 963 541 1023 b 204 849 291 1023 215 967 l 271 849 b 412 943 283 913 337 943 b 563 849 489 943 547 911 z m 416 -17 b 704 274 597 -17 704 94 l 704 744 l 581 744 l 581 263 b 416 78 581 157 530 78 b 252 263 303 78 252 157 l 252 744 l 129 744 l 129 274 b 416 -17 129 94 236 -17 z "},"Ș":{"ha":833,"x_min":0,"x_max":0,"o":""},"ș":{"ha":833,"x_min":0,"x_max":0,"o":""},"Ț":{"ha":833,"x_min":0,"x_max":0,"o":"m 813 1011 l 20 1011 l 20 901 l 351 901 l 351 0 l 478 0 l 478 901 l 813 901 z m 527 -119 l 386 -119 l 306 -460 l 404 -460 z "},"ț":{"ha":833,"x_min":0,"x_max":0,"o":"m 414 646 l 747 646 l 747 744 l 414 744 l 414 1064 l 291 1027 l 291 744 l 94 744 l 94 646 l 291 646 l 291 338 b 632 0 291 87 366 0 l 754 0 l 754 98 l 627 98 b 414 300 477 98 414 148 z m 534 -119 l 393 -119 l 313 -460 l 412 -460 z "},"ȷ":{"ha":833,"x_min":0,"x_max":0,"o":"m 278 -105 l 92 -105 l 92 -212 l 279 -212 b 545 124 533 -212 545 -97 l 545 744 l 92 744 l 92 646 l 421 646 l 421 86 b 278 -105 421 -81 404 -105 z "},"ˆ":{"ha":833,"x_min":0,"x_max":0,"o":"m 481 1095 l 368 1095 l 192 859 l 284 859 l 421 1018 l 559 859 l 656 859 z "},"ˇ":{"ha":833,"x_min":0,"x_max":0,"o":"m 301 1095 l 192 1095 l 376 859 l 488 859 l 673 1095 l 557 1095 l 429 935 z "},"˘":{"ha":833,"x_min":0,"x_max":0,"o":"m 279 1071 l 212 1071 b 427 897 223 953 299 897 b 637 1071 551 897 629 956 l 572 1071 b 420 975 555 1009 498 975 b 279 1071 343 975 291 1005 z "},"˙":{"ha":833,"x_min":0,"x_max":0,"o":"m 345 1037 l 345 917 l 465 917 l 465 1037 z "},"˚":{"ha":833,"x_min":0,"x_max":0,"o":"m 429 1063 b 504 987 470 1063 504 1028 b 409 909 504 935 460 909 b 337 986 367 909 337 945 b 429 1063 337 1037 378 1063 z m 578 987 b 421 1126 578 1071 505 1126 b 262 987 335 1126 262 1072 b 422 846 262 901 336 846 b 578 987 505 846 578 904 z "},"˛":{"ha":833,"x_min":0,"x_max":0,"o":"m 281 -165 b 466 -288 281 -261 370 -288 b 576 -266 505 -288 542 -280 l 576 -184 b 474 -208 547 -195 513 -208 b 386 -144 428 -208 386 -190 b 539 0 386 -81 480 -34 l 443 9 b 281 -165 376 -22 281 -71 z "},"˜":{"ha":833,"x_min":0,"x_max":0,"o":"m 703 1042 l 610 1042 b 555 970 607 1005 594 970 b 331 1050 459 970 429 1050 b 172 884 228 1050 174 984 l 265 884 b 328 953 267 924 285 953 b 552 874 422 953 456 874 b 703 1042 652 874 699 947 z "},"˝":{"ha":833,"x_min":0,"x_max":0,"o":"m 366 861 l 454 861 l 667 1090 l 538 1090 z m 167 861 l 254 861 l 465 1090 l 336 1090 z "},"̇":{"ha":833,"x_min":0,"x_max":0,"o":"m 357 1037 l 357 917 l 477 917 l 477 1037 z "},"̏":{"ha":833,"x_min":0,"x_max":0,"o":"m 499 1090 l 370 1090 l 581 861 l 668 861 z m 268 1090 l 139 1090 l 351 861 l 439 861 z "},"̑":{"ha":833,"x_min":0,"x_max":0,"o":"m 563 897 l 629 897 b 418 1071 621 1011 541 1071 b 204 897 291 1071 215 1015 l 271 897 b 412 991 283 961 337 991 b 563 897 489 991 547 959 z "},"̦":{"ha":833,"x_min":0,"x_max":0,"o":"m 527 -119 l 386 -119 l 306 -460 l 404 -460 z "},"Ω":{"ha":833,"x_min":0,"x_max":0,"o":"m 692 89 l 692 0 l 1086 0 l 1093 102 l 847 101 b 1092 568 972 199 1092 351 b 587 1067 1092 838 911 1067 b 66 590 332 1067 66 909 b 307 101 66 349 162 203 l 50 102 l 59 0 l 465 0 l 462 89 b 200 559 321 178 200 334 b 584 964 200 795 346 964 b 959 559 798 964 959 809 b 692 89 959 330 844 186 z "},"μ":{"ha":833,"x_min":0,"x_max":0,"o":"m 245 294 l 245 755 l 122 755 l 122 -149 l 245 -149 l 245 23 b 410 -17 289 -3 345 -17 b 663 99 527 -17 609 28 l 666 0 l 793 0 b 783 309 785 100 783 204 b 787 755 783 458 787 608 l 663 755 l 663 321 b 439 80 663 182 579 80 b 245 294 302 80 245 159 z "},"π":{"ha":833,"x_min":0,"x_max":0,"o":"m 897 5 b 886 61 890 24 886 42 b 889 117 886 80 888 98 b 829 108 870 113 852 108 b 755 212 767 108 755 151 l 755 667 l 909 667 l 909 766 l 208 766 b 9 720 128 766 56 754 l 22 623 b 231 667 81 652 151 665 b 126 0 226 433 218 157 l 254 0 b 283 81 265 20 275 47 b 357 667 327 252 344 469 l 636 667 l 636 205 b 792 -5 636 78 663 -5 b 897 5 829 -5 864 -1 z "},"–":{"ha":833,"x_min":0,"x_max":0,"o":"m 125 360 l 943 360 l 943 461 l 125 461 z "},"—":{"ha":833,"x_min":0,"x_max":0,"o":"m -4 360 l 1621 360 l 1621 461 l -4 461 z "},"‘":{"ha":833,"x_min":0,"x_max":0,"o":"m 302 753 l 439 753 l 517 1077 l 418 1077 z "},"’":{"ha":833,"x_min":0,"x_max":0,"o":"m 516 1077 l 382 1077 l 302 753 l 401 753 z "},"‚":{"ha":833,"x_min":0,"x_max":0,"o":"m 524 148 l 389 148 l 310 -175 l 410 -175 z "},"“":{"ha":833,"x_min":0,"x_max":0,"o":"m 420 753 l 557 753 l 636 1077 l 536 1077 z m 158 753 l 295 753 l 374 1077 l 274 1077 z "},"”":{"ha":833,"x_min":0,"x_max":0,"o":"m 373 1077 l 237 1077 l 158 753 l 258 753 z m 619 1077 l 483 1077 l 404 753 l 503 753 z "},"„":{"ha":833,"x_min":0,"x_max":0,"o":"m 380 148 l 244 148 l 165 -175 l 265 -175 z m 650 148 l 512 148 l 435 -175 l 534 -175 z "},"†":{"ha":833,"x_min":0,"x_max":0,"o":"m 163 688 l 408 688 l 408 83 l 504 83 l 504 688 l 772 688 l 772 785 l 514 785 l 514 1068 l 408 1068 l 408 785 l 163 785 z "},"‡":{"ha":833,"x_min":0,"x_max":0,"o":"m 160 724 l 414 724 l 414 414 l 155 414 l 155 320 l 414 320 l 397 83 l 526 83 l 506 320 l 764 320 l 764 414 l 506 414 l 506 724 l 770 724 l 770 821 l 511 821 l 511 1068 l 399 1068 l 418 821 l 160 821 z "},"•":{"ha":833,"x_min":0,"x_max":0,"o":"m 764 515 b 513 743 764 627 665 743 b 257 511 410 743 257 665 b 508 283 257 398 356 283 b 764 515 647 283 764 376 z "},"…":{"ha":833,"x_min":0,"x_max":0,"o":"m 53 -8 l 216 -8 l 216 146 l 53 146 z m 864 -8 l 1027 -8 l 1027 146 l 864 146 z m 458 -8 l 621 -8 l 621 146 l 458 146 z "},"‰":{"ha":833,"x_min":0,"x_max":0,"o":"m 1422 502 b 1167 241 1263 502 1167 399 b 1419 -20 1167 80 1257 -20 b 1674 239 1577 -20 1674 83 b 1422 502 1674 401 1585 502 z m 831 502 b 575 241 673 502 575 399 b 828 -20 575 81 666 -20 b 1082 239 985 -20 1082 83 b 831 502 1082 401 994 502 z m 257 1065 b 3 806 98 1065 3 963 b 255 545 3 645 93 545 b 510 804 414 545 510 646 b 257 1065 510 966 420 1065 z m 837 1057 l 132 -15 l 248 -15 l 949 1057 z m 1420 63 b 1275 241 1316 63 1275 138 b 1420 418 1275 340 1321 418 b 1567 241 1523 418 1567 342 l 1565 241 b 1420 63 1565 142 1519 63 z m 975 241 b 831 63 975 144 928 63 b 686 241 727 63 686 139 l 684 241 b 830 418 684 340 730 418 b 975 241 932 418 975 342 z m 257 983 b 402 805 360 983 402 907 b 259 628 402 708 357 628 b 113 806 157 628 113 705 b 257 983 113 903 160 983 z "},"‹":{"ha":833,"x_min":0,"x_max":0,"o":"m 597 673 l 477 673 l 272 399 l 473 125 l 591 125 l 399 399 z "},"›":{"ha":833,"x_min":0,"x_max":0,"o":"m 272 125 l 390 125 l 597 399 l 395 673 l 277 673 l 469 399 z "},"⁄":{"ha":833,"x_min":0,"x_max":0,"o":"m 592 1194 l 115 -33 l 237 -33 l 718 1194 z "},"⁴":{"ha":833,"x_min":0,"x_max":0,"o":"m 481 591 l 481 453 l 572 453 l 572 591 l 663 591 l 654 670 l 573 670 l 573 1040 l 472 1040 l 199 658 l 199 591 z m 480 670 l 302 670 l 481 916 b 479 811 479 880 479 846 b 480 670 479 764 480 718 z "},"€":{"ha":833,"x_min":0,"x_max":0,"o":"m 159 481 l 83 481 l 68 380 l 169 380 b 573 -15 200 155 317 -15 b 822 55 674 -15 757 12 l 823 186 b 585 92 763 140 685 92 b 302 380 400 92 325 217 l 709 380 l 724 481 l 292 481 b 290 547 290 503 290 524 l 292 577 l 734 577 l 750 679 l 305 679 b 591 960 336 823 416 960 b 812 840 697 960 766 906 l 839 979 b 586 1066 781 1035 692 1066 b 173 679 357 1066 214 897 l 83 679 l 65 577 l 159 577 b 157 537 158 564 157 551 b 159 481 157 518 158 499 z "},"™":{"ha":833,"x_min":0,"x_max":0,"o":"m 720 814 l 620 1068 l 494 1068 l 494 505 l 585 505 l 585 943 l 693 689 l 753 689 l 856 943 l 856 505 l 948 505 l 948 1068 l 830 1068 z m 410 994 l 410 1068 l 0 1068 l 0 994 l 157 994 l 157 505 l 248 505 l 248 994 z "},"∂":{"ha":833,"x_min":0,"x_max":0,"o":"m 452 1030 b 697 671 635 1030 697 853 l 696 615 b 459 738 646 682 570 738 b 82 309 241 738 82 561 b 389 -18 82 113 191 -18 b 824 652 696 -18 824 305 b 460 1128 824 913 722 1128 b 230 1062 367 1128 290 1101 l 237 960 b 452 1030 294 997 366 1030 z m 686 483 b 399 81 666 314 591 81 b 210 307 269 81 210 178 b 470 640 210 476 298 640 b 686 483 591 640 653 574 z "},"∆":{"ha":833,"x_min":0,"x_max":0,"o":"m -42 0 l 876 0 l 876 59 l 485 1053 l 349 1053 l -42 59 z m 702 119 l 128 119 b 412 897 222 377 326 633 b 702 119 490 623 606 376 z "},"∏":{"ha":833,"x_min":0,"x_max":0,"o":"m 1019 941 l 1105 941 l 1117 1048 l 106 1048 l 118 941 l 212 941 l 212 -243 l 343 -243 l 343 941 l 886 941 l 886 -243 l 1019 -243 z "},"∑":{"ha":833,"x_min":0,"x_max":0,"o":"m 50 -243 l 924 -243 l 924 -134 l 228 -134 l 682 413 l 252 943 l 889 943 l 889 1048 l 68 1048 l 68 978 l 531 406 l 50 -176 z "},"−":{"ha":833,"x_min":0,"x_max":0,"o":"m 890 365 l 890 466 l 103 466 l 103 365 z "},"√":{"ha":833,"x_min":0,"x_max":0,"o":"m 453 31 b 237 608 391 230 312 418 l 16 570 l 31 488 l 160 508 l 409 -113 l 511 -113 l 861 1175 l 763 1175 b 453 31 661 793 546 420 z "},"∞":{"ha":833,"x_min":0,"x_max":0,"o":"m 1088 450 b 912 261 1088 332 1031 261 b 673 435 802 261 731 360 b 701 461 683 441 692 450 b 921 610 754 527 802 610 b 1088 450 1019 610 1088 546 z m 317 610 b 569 433 442 610 516 509 b 323 261 519 364 439 261 b 145 435 222 261 145 335 b 317 610 145 536 214 610 z m 909 694 b 623 509 768 694 688 589 b 317 694 557 593 465 694 b 47 450 208 694 47 612 b 320 173 47 290 159 173 b 621 359 448 173 551 272 b 922 173 690 272 768 173 b 1193 437 1048 173 1193 267 b 909 694 1193 606 1079 694 z "},"∫":{"ha":833,"x_min":0,"x_max":0,"o":"m 691 1090 l 689 1185 b 589 1201 657 1192 625 1201 b 363 924 423 1201 363 1088 l 363 -35 b 234 -195 363 -139 340 -195 b 160 -183 206 -195 182 -191 l 162 -279 b 263 -294 193 -287 227 -294 b 487 -17 428 -294 487 -180 l 487 942 b 617 1101 487 1048 510 1101 b 691 1090 645 1101 670 1098 z "},"≈":{"ha":833,"x_min":0,"x_max":0,"o":"m 677 280 b 627 290 661 280 644 283 b 334 401 532 324 462 401 b 107 213 199 401 134 322 l 193 192 b 328 314 212 254 248 314 b 667 193 429 314 525 193 b 884 382 799 193 859 274 l 800 401 b 677 280 780 349 748 280 z m 326 588 b 376 579 342 588 360 585 b 663 467 470 545 538 467 b 881 655 796 467 856 547 l 798 676 b 666 554 777 616 747 554 b 616 563 650 554 633 557 b 330 675 524 596 450 675 b 103 486 197 675 128 595 l 104 486 b 193 467 121 486 168 471 b 326 588 212 529 245 588 z "},"≠":{"ha":833,"x_min":0,"x_max":0,"o":"m 630 625 l 724 814 l 631 827 l 528 625 l 103 625 l 109 536 l 486 536 l 376 328 l 104 328 l 109 239 l 330 239 l 234 47 l 326 34 l 431 239 l 869 239 l 863 328 l 475 328 l 586 536 l 869 536 l 862 625 z "},"≤":{"ha":833,"x_min":0,"x_max":0,"o":"m 130 490 l 843 159 l 843 262 l 262 523 l 843 795 l 843 897 l 130 550 z m 103 6 l 865 6 l 865 97 l 103 97 z "},"≥":{"ha":833,"x_min":0,"x_max":0,"o":"m 847 551 l 130 899 l 103 796 l 714 520 l 127 264 l 127 161 l 847 492 z m 103 6 l 847 6 l 862 97 l 103 97 z "},"◊":{"ha":833,"x_min":0,"x_max":0,"o":"m 502 -33 l 848 524 l 509 1082 l 428 1082 l 85 524 l 423 -33 z m 471 975 b 735 524 555 821 647 674 b 463 72 644 372 549 227 l 196 525 b 471 975 288 676 382 821 z "},"":{"ha":833,"x_min":0,"x_max":0,"o":"m 549 -103 l 408 -103 l 328 -444 l 427 -444 z "},"ﬁ":{"ha":833,"x_min":0,"x_max":0,"o":"m 524 1004 l 522 1099 b 421 1115 491 1106 458 1115 b 196 755 215 1115 200 956 l 45 755 l 45 676 l 196 676 l 196 0 l 319 0 l 319 676 l 665 676 l 665 0 l 787 0 l 787 755 l 319 755 b 319 833 319 783 319 809 b 448 1015 319 937 330 1015 b 524 1004 475 1015 503 1012 z m 785 962 l 785 1076 l 669 1076 l 669 962 z "},"ﬂ":{"ha":833,"x_min":0,"x_max":0,"o":"m 511 985 l 511 1098 b 296 1057 427 1090 355 1082 b 174 751 189 1011 174 905 l 39 751 l 39 674 l 174 674 l 174 0 l 319 0 l 319 674 l 509 674 l 509 751 l 319 751 l 319 797 b 511 985 319 963 380 975 z m 649 0 l 794 0 l 794 1099 l 649 1099 z "}}}
